<svg xmlns="http://www.w3.org/2000/svg" width="63" height="63" viewBox="0 0 63 63" fill="none"><path d="M53.9457 34.8347C56.1288 34.6667 57.8922 36.0941 58.0601 38.2771C58.2281 40.5441 56.6327 42.3912 54.4495 42.5592C52.3502 42.7271 50.5029 41.1318 50.335 39.0328C50.167 36.7658 51.6785 35.0866 53.9457 34.8347Z" fill="#5EE230"/><path d="M25.9648 54.1546C25.9648 51.988 27.9115 50.3213 30.2474 50.3213C32.5834 50.3213 34.822 52.1546 34.822 54.238C34.822 56.238 32.8754 57.988 30.6367 58.0713C27.8141 58.0713 25.9648 56.5713 25.9648 54.1546Z" fill="#1FC9FF"/><path d="M32.8582 28.1212C32.5067 28.2985 32.331 28.0325 32.2431 27.7665C28.9918 21.6487 29.9584 13.935 35.6702 9.32456C37.1641 8.08328 39.9761 7.81729 41.2063 9.05858C41.7335 9.50189 41.8214 10.0339 41.9093 10.6545C42.085 11.9845 42.3487 13.3144 43.2274 14.3784C44.194 15.531 45.4243 15.9743 46.8303 15.8856C48.0605 15.8856 49.2907 15.7083 50.0816 17.1269C50.521 17.9249 50.3452 21.0281 49.6422 21.6487C49.2907 21.9147 49.0271 21.7374 48.7635 21.6487C46.7424 20.8508 44.6334 20.8508 42.5244 21.2054C41.8214 21.2941 41.4699 21.1168 41.4699 20.3188C41.382 18.9889 41.1184 17.7476 40.4154 16.5949C39.0973 14.201 36.6368 14.1124 35.0551 16.329C33.737 18.1022 33.3855 20.2301 33.034 22.358C32.6825 24.22 32.7704 26.1706 32.8582 28.1212Z" fill="#FFBD12"/><path d="M34.9112 29.5516C34.7403 29.2835 34.8257 29.0154 35.082 28.8366C39.9518 24.1893 47.2138 23.2956 52.8525 27.8535C54.3049 29.1047 55.2447 31.6965 54.4758 33.2158C54.134 33.8414 53.7069 34.1096 53.1943 34.2883C51.9982 34.8245 50.8875 35.3608 50.1186 36.5226C49.3497 37.6844 49.1788 39.025 49.5206 40.455C49.7769 41.6168 50.204 42.868 49.0934 43.9405C48.4953 44.5661 45.5905 45.1023 44.8216 44.5661C44.4799 44.298 44.5653 44.0298 44.6508 43.6723C44.9071 41.4381 44.3945 39.3825 43.6255 37.4163C43.3692 36.7013 43.4547 36.3439 44.1381 36.1651C45.3342 35.8076 46.4449 35.182 47.2992 34.2883C49.1788 32.4115 48.7516 29.9984 46.274 28.926C44.309 28.0323 42.2586 28.211 40.2936 28.3898C38.414 28.4791 36.6199 29.0154 34.9112 29.5516Z" fill="#5EE230"/><path d="M33.7938 31.6615C34.0523 31.4056 34.2247 31.4909 34.4832 31.6615C40.1713 35.0729 43.1015 41.8104 40.516 48.3773C39.8265 50.083 37.5858 51.7887 35.9483 51.3623C35.2589 51.1917 34.9141 50.8506 34.5694 50.4242C33.7938 49.4007 32.9319 48.4626 31.6392 48.0362C30.2603 47.6098 29.0537 47.8656 27.8472 48.5479C26.813 49.1449 25.7788 49.9125 24.486 49.1449C23.7104 48.7185 22.4177 46.0746 22.6762 45.2218C22.8486 44.8806 23.1933 44.8806 23.538 44.8806C25.6926 44.5395 27.4162 43.5161 29.0537 42.1515C29.5708 41.7251 30.0017 41.7251 30.4326 42.3221C31.1221 43.3455 31.9839 44.1984 33.1043 44.7954C35.345 46.0746 37.4996 44.9659 37.7582 42.4074C38.0167 40.2753 37.2411 38.399 36.5516 36.5227C35.776 34.817 34.8279 33.1966 33.7938 31.6615Z" fill="#1FC9FF"/><path d="M30.3934 32.3466C30.0494 34.1318 29.2753 35.8277 28.2431 37.3451C25.1467 42.1651 20.6741 44.1288 15.1693 43.5932C13.191 43.4147 11.5568 41.7188 11.3847 40.0229C11.2987 39.3088 11.4708 38.7732 11.9008 38.2377C12.5029 37.4344 13.019 36.7203 13.277 35.7384C13.7931 33.7748 13.105 32.1681 11.7288 30.74C9.83653 28.7763 10.0946 26.9911 12.3309 25.5629C12.5889 25.3844 12.933 25.2059 13.277 25.0274C13.7931 24.7596 14.2231 24.7596 14.3952 25.3844C15.1693 27.4374 16.7175 28.9548 18.4377 30.2044C19.0398 30.74 19.0398 31.097 18.5237 31.7218C17.4916 32.8822 16.8895 34.3103 16.8035 35.917C16.6315 37.8807 17.7496 39.1303 19.6419 39.1303C20.8461 39.1303 21.9642 38.684 22.9964 38.1484C25.6628 36.7203 27.727 34.6673 29.7053 32.5251C29.9634 32.4359 30.0494 32.2574 30.3934 32.3466Z" fill="#1A87FC"/><path d="M15.6701 13.6175C15.849 13.6175 16.2965 13.703 16.744 13.7885C20.0553 14.387 22.1137 13.2756 23.1876 10.2833C23.9036 8.31689 25.425 7.71843 27.3939 8.74436C27.4833 8.74436 27.4833 8.82986 27.5728 8.82986C29.6312 9.94128 29.6312 10.1123 28.3783 11.8222C27.3044 13.1901 26.7674 14.729 26.4989 16.3533C26.3199 17.2938 25.9619 17.4648 25.067 17.1228C23.6351 16.6098 22.1137 16.6098 20.5923 17.1228C18.8919 17.6358 18.1759 19.0892 18.7129 20.7135C19.4288 22.8509 21.3977 23.7913 23.0981 24.9028C24.7985 26.0142 26.7674 26.6126 28.6468 27.3821C28.9153 27.4676 29.3627 27.4676 29.2732 27.8951C29.1837 28.1515 28.8258 28.1515 28.4678 28.1515C24.4405 28.3225 20.5923 27.7241 17.4599 25.1592C14.5066 22.8509 12.3588 20.0296 12.7167 16.0969C12.9852 14.8144 13.9697 13.874 15.6701 13.6175Z" fill="#FF3336"/><path d="M9.09762 38.1176C7.10159 38.3686 5.10556 36.6952 4.93923 34.6034C4.77289 32.5954 6.43625 30.5873 8.34911 30.4199C10.5115 30.1689 12.5075 31.675 12.6738 33.6831C12.757 35.6075 11.5095 37.9502 9.09762 38.1176Z" fill="#1A87FC"/><path d="M45.4668 7.15417C47.8404 6.98621 50.119 8.66583 50.3089 10.7654C50.4988 12.7809 48.5999 14.7125 46.3213 14.8804C43.8528 15.0484 41.6691 13.4528 41.4792 11.3532C41.2893 9.2537 42.9983 7.32213 45.4668 7.15417Z" fill="#FFBD12"/><path d="M23.7186 8.25391C24.0053 10.4531 22.2851 12.3139 19.705 12.6522C17.5071 12.906 15.2136 11.2989 14.9269 9.43807C14.6402 6.98516 16.1692 5.20892 18.7494 4.95517C21.1384 4.70142 23.4319 6.3085 23.7186 8.25391Z" fill="#FF3336"/></svg>