<svg width="55" height="54" viewBox="0 0 55 54" fill="none" xmlns="http://www.w3.org/2000/svg">
<g clip-path="url(#clip0_1_9584)">
<path d="M46.4388 29.8754C48.2403 29.6502 49.8167 30.9263 50.0418 32.7278V32.953C50.192 34.8296 48.8408 36.556 46.9642 36.7061H46.8892C45.0126 36.9313 43.3612 35.5802 43.136 33.7036C42.9108 31.827 44.262 30.1756 46.1385 29.9504H46.3637L46.4388 29.8754Z" fill="#86DA2F"/>
<path d="M23.0946 45.5634C23.0196 43.7619 24.4458 42.2606 26.2473 42.1855H26.3224C28.1989 42.2606 29.7002 43.7619 29.7753 45.6385C29.7753 47.44 28.4241 48.8662 26.6226 49.0163C24.8211 49.1665 23.2448 47.8153 23.0946 46.0138V45.5634Z" fill="#24C2FF"/>
<path d="M28.3487 24.02C28.0484 24.1701 27.8983 23.9449 27.8233 23.7198C25.121 18.6154 25.8716 12.235 30.6757 8.33174C31.9517 7.28085 34.2787 7.05566 35.3296 8.10655C35.7049 8.48187 35.9301 8.93225 35.9301 9.45769C36.0052 10.5836 36.3805 11.6345 37.0561 12.5353C37.8067 13.4361 38.9327 13.8864 40.0586 13.7363C41.1095 13.7363 42.1604 13.5862 42.7609 14.7872C43.1362 15.4628 42.9861 18.09 42.3856 18.5404C42.0853 18.7656 41.8601 18.6154 41.6349 18.5404C39.9835 17.9399 38.107 17.7897 36.3805 18.1651C35.78 18.2401 35.4797 18.09 35.4797 17.4144C35.4797 16.2885 35.1044 15.2376 34.579 14.3368C33.453 12.3101 31.4263 12.235 30.0752 14.1116C28.9492 15.6129 28.649 17.4144 28.3487 19.1409C28.2736 20.7923 28.1986 22.4437 28.3487 24.02Z" fill="#FFCB12"/>
<path d="M30.1502 25.1466C30.0001 24.9965 30.0751 24.6962 30.2253 24.6212H30.3003C34.5039 20.5677 41.0344 20.2675 45.6883 23.7955C46.9644 24.8464 47.7901 26.9481 47.1145 28.2242C46.8893 28.6746 46.514 28.9748 45.9886 29.125C44.9377 29.5003 44.0369 30.1008 43.3614 31.0016C42.6858 31.9774 42.5357 33.1784 42.8359 34.3044C43.0611 35.2802 43.4364 36.3311 42.4606 37.1568C41.9352 37.6822 39.4581 38.1326 38.7825 37.6822C38.4822 37.457 38.5573 37.2318 38.6324 36.9316C38.7825 35.13 38.4822 33.3285 37.7316 31.6771C37.5064 31.0766 37.5815 30.7764 38.182 30.6262C39.2329 30.326 40.1336 29.8005 40.8843 29.0499C42.5357 27.4736 42.1603 25.5219 39.9835 24.6212C38.257 23.8705 36.5306 24.0207 34.8041 24.1708C33.3029 24.3209 31.7265 24.6212 30.1502 25.1466Z" fill="#86DA2F"/>
<path d="M29.2499 27.0982C29.475 26.873 29.6252 26.9481 29.8504 27.0982C34.7295 30.0257 37.2066 35.8806 35.0297 41.5854C34.4292 43.0867 32.5526 44.5129 31.1264 44.1376C30.6761 43.9875 30.2257 43.7623 29.9254 43.3119C29.3249 42.4111 28.4242 41.6605 27.4483 41.2101C26.3224 40.8348 25.1214 41.06 24.1455 41.6605C23.2448 42.1859 22.344 42.8615 21.2931 42.1859C20.6176 41.8106 19.4916 39.5587 19.7168 38.8081C19.8669 38.5078 20.1672 38.5078 20.4674 38.5078C22.2689 38.2076 23.8453 37.3819 25.1964 36.1809C25.4967 35.8806 25.9471 35.8806 26.2473 36.1809C26.3224 36.2559 26.3224 36.331 26.3974 36.331C26.9979 37.2318 27.7486 37.9824 28.7244 38.4328C30.6761 39.5587 32.4776 38.5829 32.7028 36.331C32.928 34.4544 32.2524 32.8781 31.6519 31.2267C30.9012 29.8005 30.1506 28.3743 29.2499 27.0982Z" fill="#24C2FF"/>
<path d="M26.8474 27.5485C26.5471 29.0498 25.8716 30.476 24.9708 31.677C22.3436 35.6554 18.4403 37.3068 13.7113 36.8564C12.0599 36.7063 10.7087 35.5053 10.4085 33.9289C10.3334 33.4035 10.4836 32.878 10.8589 32.4277C11.3843 31.8271 11.8347 31.0765 12.0599 30.3259C12.4352 28.8246 11.9098 27.2483 10.7087 26.2725C9.05735 24.6211 9.28254 23.1948 11.2342 21.9938C11.5344 21.8437 11.7596 21.6936 12.0599 21.5435C12.5103 21.3183 12.8856 21.3183 13.0357 21.8437C13.7863 23.4951 14.9874 24.8462 16.4886 25.8221C17.0141 26.2725 17.0141 26.5727 16.5637 27.0981C15.6629 28.074 15.1375 29.275 15.0624 30.5511C14.8372 31.7521 15.6629 32.9531 16.8639 33.1783H17.4645C18.4403 33.1032 19.4912 32.878 20.3169 32.3526C22.4937 31.1516 24.4454 29.5752 26.0968 27.6987C26.4721 27.6236 26.5471 27.4735 26.8474 27.5485Z" fill="#0069DA"/>
<path d="M14.762 12.0099C15.0623 12.0099 15.3625 12.085 15.6628 12.16C18.3651 12.6855 20.0915 11.7097 20.9923 9.1575C21.5928 7.43104 22.8689 6.9056 24.4452 7.80636C24.5203 7.80636 24.5203 7.88143 24.5953 7.88143C26.3218 8.85725 26.3218 9.00738 25.2709 10.4336C24.4452 11.5595 23.9198 12.9107 23.6946 14.3369C23.5445 15.1626 23.2442 15.3127 22.4936 15.0125C21.2926 14.5621 20.0165 14.5621 18.8155 15.0125C17.6144 15.3127 16.8638 16.5888 17.1641 17.8649C17.1641 17.9399 17.2391 18.015 17.2391 18.0901C17.8396 19.9666 19.491 20.7173 20.8422 21.6931C22.2684 22.5939 23.8447 23.2694 25.421 23.7949C25.6462 23.8699 26.0216 23.8699 25.9465 24.2453C25.8714 24.4705 25.5712 24.4705 25.2709 24.4705C21.9681 24.6206 18.7404 24.0951 16.1882 21.9183C13.7111 19.8916 11.9847 17.4895 12.2849 14.1117C12.5852 12.9857 13.561 12.085 14.762 12.0099Z" fill="#FF4649"/>
<path d="M8.68223 32.7282C6.80565 32.8783 5.15425 31.5272 5.00412 29.6506C4.92906 27.8491 6.20514 26.1977 8.00666 25.9725C9.88325 25.6722 11.5346 26.9483 11.8349 28.8249C11.985 30.5514 10.8591 32.5781 8.68223 32.7282Z" fill="#0069DA"/>
<path d="M39.6831 6.4561C41.5596 6.38104 43.211 7.73218 43.4362 9.60877C43.6614 11.4854 42.3103 13.2118 40.4337 13.437C38.5571 13.6622 36.8306 12.3111 36.6055 10.4345V10.2093C36.3803 8.25763 37.8065 6.60623 39.6831 6.4561Z" fill="#FFCB12"/>
<path d="M20.4669 7.88197C20.6921 9.75855 19.3409 11.485 17.4643 11.7102C15.6628 11.9354 14.0114 10.7344 13.6361 8.93286C13.4109 6.75601 14.6119 5.25475 16.6386 4.95449C18.4402 4.80436 20.0916 6.08044 20.4669 7.88197Z" fill="#FF4649"/>
</g>
<defs>
<clipPath id="clip0_1_9584">
<rect width="54" height="54" fill="white" transform="translate(0.5)"/>
</clipPath>
</defs>
</svg>
