<svg width="55" height="54" viewBox="0 0 55 54" fill="none" xmlns="http://www.w3.org/2000/svg">
<path fill-rule="evenodd" clip-rule="evenodd" d="M27.5745 6.36237C25.7749 10.7744 24.6883 13.6642 22.6847 17.9447C23.9131 19.2468 25.4209 20.756 27.8696 22.4687C25.237 21.3853 23.4428 20.3053 22.1008 19.1768C19.5366 24.5273 15.5134 32.141 7.36133 46.7889C13.7677 43.0903 18.7372 40.8125 23.3656 39.9419C23.167 39.0873 23.0563 38.1599 23.064 37.1954L23.0705 36.9965C23.1721 32.8914 25.3086 29.7299 27.8383 29.9442C30.368 30.1586 32.3355 33.6678 32.2339 37.7726C32.2148 38.5446 32.1293 39.2848 31.9772 39.9736C36.5543 40.8701 41.4705 43.1409 47.7886 46.7885C46.5423 44.4939 45.4243 42.4313 44.362 40.4613C42.6886 39.1643 40.9471 37.476 37.3867 35.6485C39.8339 36.2844 41.5908 37.0167 42.9566 37.8367C32.155 17.7264 31.279 15.0534 27.5754 6.36108L27.5745 6.36237Z" fill="#1793D1"/>
</svg>
