<svg xmlns="http://www.w3.org/2000/svg" width="14" height="14" viewBox="0 0 14 14" fill="none">
  <g clip-path="url(#clip0_510_114171)">
    <path d="M10.2499 2.53919C10.1193 2.45796 9.9591 2.46469 9.83813 2.54296L6.44456 4.63492C5.61127 4.69925 4.84375 5.36215 4.84375 6.34084C4.84375 7.29005 5.614 8.0518 6.56 8.0518C7.54213 8.0518 8.20591 7.2886 8.27104 6.459L10.3737 3.06919C10.4858 2.88855 10.4304 2.65135 10.2499 2.53919Z" fill="#15171C"/>
    <path d="M6.17752 -0.0512695C4.73684 0.0318834 3.36907 0.581429 2.27222 1.52054L5.03517 4.27885C5.37691 4.04613 5.76784 3.89489 6.17752 3.83641V-0.0512695Z" fill="#15171C"/>
    <path d="M1.71799 2.05396C0.741867 3.10859 0.138648 4.44937 0.00398478 5.88476C-0.0200478 6.1407 0.0654282 6.39673 0.238703 6.58723C0.4127 6.77845 0.660877 6.8882 0.919708 6.8882H2.97682C3.42879 6.8882 3.81973 6.55126 3.88622 6.10441C3.95775 5.6236 4.16011 5.17267 4.46724 4.79856L1.71799 2.05396Z" fill="#15171C"/>
    <path d="M10.5653 9.57624H2.5603C2.34793 9.57624 2.17578 9.40393 2.17578 9.19132C2.17578 8.97871 2.34793 8.8064 2.5603 8.8064H10.5653C10.7775 8.8064 10.9498 8.97871 10.9498 9.19132C10.9498 9.40393 10.7775 9.57624 10.5653 9.57624Z" fill="#15171C"/>
    <path d="M8.56187 11.0999H4.55627C4.34399 11.0999 4.17175 10.9275 4.17175 10.715C4.17175 10.5024 4.34399 10.3301 4.55627 10.3301H8.56187C8.77424 10.3301 8.9464 10.5024 8.9464 10.715C8.9464 10.9275 8.77424 11.0999 8.56187 11.0999Z" fill="#15171C"/>
    <path d="M6.94727 -0.0512695V3.6057L10.6156 1.32684C9.5617 0.506047 8.28596 0.0260354 6.94727 -0.0512695Z" fill="#15171C"/>
    <path d="M13.1215 5.88487C12.9926 4.51028 12.4339 3.22238 11.5294 2.18945L9.2395 6.10549C9.30631 6.55178 9.69692 6.88823 10.1487 6.88823H12.2058C12.4647 6.88823 12.7128 6.7784 12.8869 6.58726C13.06 6.39685 13.1456 6.14074 13.1215 5.88487Z" fill="#15171C"/>
  </g>
  <defs>
    <clipPath id="clip0_510_114171">
      <rect width="14" height="14" fill="white"/>
    </clipPath>
  </defs>
</svg>