<svg
                  xmlns="http://www.w3.org/2000/svg"
                  width="20"
                  height="20"
                  viewBox="0 0 20 20"
                  fill="none"
                >
                  <path
                    d="M2.08337 3.5415C2.08337 3.37574 2.14922 3.21677 2.26643 3.09956C2.38364 2.98235 2.54261 2.9165 2.70837 2.9165H3.17337C3.96504 2.9165 4.44004 3.449 4.71087 3.944C4.89171 4.274 5.02254 4.6565 5.12504 5.00317C5.15276 5.00098 5.18056 4.99987 5.20837 4.99984H15.6234C16.315 4.99984 16.815 5.6615 16.625 6.32734L15.1017 11.6682C14.9651 12.1472 14.6762 12.5687 14.2786 12.8688C13.881 13.169 13.3965 13.3314 12.8984 13.3315H7.94171C7.43962 13.3315 6.95142 13.1667 6.55214 12.8622C6.15287 12.5578 5.86462 12.1307 5.73171 11.6465L5.09837 9.3365L4.04837 5.7965L4.04754 5.78984C3.91754 5.31734 3.79587 4.87484 3.61421 4.54484C3.44004 4.224 3.30004 4.1665 3.17421 4.1665H2.70837C2.54261 4.1665 2.38364 4.10066 2.26643 3.98345C2.14922 3.86624 2.08337 3.70726 2.08337 3.5415ZM7.50004 17.4998C7.94207 17.4998 8.36599 17.3242 8.67855 17.0117C8.99111 16.6991 9.16671 16.2752 9.16671 15.8332C9.16671 15.3911 8.99111 14.9672 8.67855 14.6547C8.36599 14.3421 7.94207 14.1665 7.50004 14.1665C7.05801 14.1665 6.63409 14.3421 6.32153 14.6547C6.00897 14.9672 5.83337 15.3911 5.83337 15.8332C5.83337 16.2752 6.00897 16.6991 6.32153 17.0117C6.63409 17.3242 7.05801 17.4998 7.50004 17.4998ZM13.3334 17.4998C13.7754 17.4998 14.1993 17.3242 14.5119 17.0117C14.8244 16.6991 15 16.2752 15 15.8332C15 15.3911 14.8244 14.9672 14.5119 14.6547C14.1993 14.3421 13.7754 14.1665 13.3334 14.1665C12.8913 14.1665 12.4674 14.3421 12.1549 14.6547C11.8423 14.9672 11.6667 15.3911 11.6667 15.8332C11.6667 16.2752 11.8423 16.6991 12.1549 17.0117C12.4674 17.3242 12.8913 17.4998 13.3334 17.4998Z"
                    fill="#026DEB"
                    fill-opacity="0.8"
                  />
                </svg>