<svg xmlns="http://www.w3.org/2000/svg" width="14" height="14" viewBox="0 0 14 14" fill="none">
  <path d="M8.60693 13.2866C8.60693 13.6804 8.92647 13.9999 9.32031 13.9999C9.71415 13.9999 10.0337 13.6804 10.0337 13.2866V12.1348H8.60842V13.2866H8.60693Z" fill="#15171C"/>
  <path d="M8.60693 0.713376V1.86518H10.0322V0.713376C10.0322 0.319533 9.71267 0 9.31882 0C8.92498 0 8.60693 0.319533 8.60693 0.713376Z" fill="#15171C"/>
  <path d="M6.28638 0.713376V1.86518H7.71313V0.713376C7.71313 0.319533 7.3936 0 6.99975 0C6.60591 0 6.28638 0.319533 6.28638 0.713376Z" fill="#15171C"/>
  <path d="M6.28638 13.2866C6.28638 13.6804 6.60591 13.9999 6.99975 13.9999C7.3936 13.9999 7.71313 13.6804 7.71313 13.2866V12.1348H6.28638V13.2866Z" fill="#15171C"/>
  <path d="M3.96851 0.713376V1.86518H5.39377V0.713376C5.39377 0.319533 5.07424 0 4.6804 0C4.28655 0 3.96851 0.319533 3.96851 0.713376Z" fill="#15171C"/>
  <path d="M3.96851 13.2866C3.96851 13.6804 4.28804 13.9999 4.68188 13.9999C5.07572 13.9999 5.39526 13.6804 5.39526 13.2866V12.1348H3.96851V13.2866Z" fill="#15171C"/>
  <path d="M0 9.31858C0 9.71242 0.319533 10.032 0.713376 10.032H1.86518V8.60669H0.713376C0.319533 8.60669 0 8.92474 0 9.31858Z" fill="#15171C"/>
  <path d="M13.2869 8.60669H12.1351V10.032H13.2869C13.6808 10.032 14.0003 9.71242 14.0003 9.31858C14.0003 8.92474 13.6808 8.60669 13.2869 8.60669Z" fill="#15171C"/>
  <path d="M0 7C0 7.39384 0.319533 7.71337 0.713376 7.71337H1.86518V6.28662H0.713376C0.319533 6.28662 0 6.60615 0 7Z" fill="#15171C"/>
  <path d="M13.2869 6.28662H12.1351V7.71337H13.2869C13.6808 7.71337 14.0003 7.39384 14.0003 7C14.0003 6.60615 13.6808 6.28662 13.2869 6.28662Z" fill="#15171C"/>
  <path d="M0 4.68164C0 5.07548 0.319533 5.39501 0.713376 5.39501H1.86518V3.96826H0.713376C0.319533 3.96826 0 4.28779 0 4.68164Z" fill="#15171C"/>
  <path d="M13.2869 3.96826H12.1351V5.39353H13.2869C13.6808 5.39353 14.0003 5.07399 14.0003 4.68015C14.0003 4.28631 13.6808 3.96826 13.2869 3.96826Z" fill="#15171C"/>
  <path d="M2.55029 10.7066C2.55029 11.1167 2.8832 11.4497 3.29339 11.4497H10.7066C11.1167 11.4497 11.4497 11.1167 11.4497 10.7066V3.29339C11.4497 2.8832 11.1167 2.55029 10.7066 2.55029H3.29339C2.8832 2.55029 2.55029 2.8832 2.55029 3.29339V10.7066Z" fill="#15171C"/>
</svg>