<svg xmlns="http://www.w3.org/2000/svg" width="70" height="71" viewBox="0 0 70 71" fill="none"><path d="M37.6089 24.487C36.9351 24.4961 37.7356 24.8334 38.6155 24.9691C38.8595 24.7788 39.0787 24.5876 39.2753 24.4009C38.7283 24.5348 38.1708 24.538 37.6089 24.487ZM41.2244 23.5855C41.6272 23.0313 41.9194 22.4251 42.0227 21.7983C41.932 22.2448 41.6908 22.6303 41.4617 23.038C40.2021 23.8313 41.3426 22.5672 41.4608 22.086C40.1069 23.7921 41.2741 23.1088 41.2244 23.5855ZM42.5607 20.1111C42.6428 18.8976 42.3221 19.2818 42.2144 19.744C42.3397 19.8099 42.4394 20.6 42.5607 20.1111ZM35.0527 3.52441C35.4126 3.58845 35.8302 3.63806 35.7702 3.7242C36.1653 3.63716 36.2542 3.55869 35.0527 3.52441ZM35.7707 3.7242L35.5177 3.77697L35.7536 3.75532L35.7707 3.7242Z" fill="url(#paint0_linear_510_4239)"/><path d="M53.6597 31.5639C53.7215 33.2828 53.1756 34.118 52.6818 35.595L51.7938 36.0525C51.0679 37.5138 51.8659 36.9802 51.3461 38.142C50.2116 39.1857 47.9082 41.4068 47.1707 41.6103C46.6316 41.5982 47.5353 40.9515 47.6535 40.6989C46.1364 41.7775 46.4359 42.3182 44.1154 42.9749L44.0481 42.8176C38.3275 45.6065 30.3805 40.0807 30.4849 32.5422C30.4244 33.0203 30.3111 32.9008 30.1848 33.0928C29.8895 29.2147 31.914 25.3196 35.3285 23.7266C38.6681 22.0149 42.5832 22.7164 44.9738 25.0279C43.6607 23.245 41.0449 21.3547 37.947 21.5297C34.9109 21.5809 32.0699 23.5794 31.1222 25.75C29.5674 26.7638 29.3861 29.6601 28.709 30.1909C27.7963 37.1346 30.4238 40.1333 34.869 43.6628C35.5668 44.1509 35.0655 44.2256 35.1588 44.597C33.6823 43.8813 32.3308 42.7999 31.2183 41.4758C31.8089 42.3701 32.4455 43.2395 33.2689 43.9225C31.8755 43.4352 30.0151 40.4272 29.4733 40.3048C31.8735 44.7571 39.2099 48.113 43.0536 46.4475C41.275 46.5158 39.0163 46.4852 37.0192 45.7204C36.178 45.2729 35.0387 44.3473 35.2426 44.1744C40.4866 46.2027 45.9023 45.7097 50.4389 41.9426C51.594 41.0106 52.8549 39.4262 53.2195 39.4048C52.6708 40.26 53.3136 39.816 52.8919 40.5709C54.0402 38.6493 52.3913 39.7883 54.08 37.2527L54.7036 38.142C54.4701 36.5455 56.6161 34.6089 56.3978 32.0861C56.8902 31.3149 56.9465 32.9171 56.4245 34.6915C57.1491 32.7229 56.6161 32.4063 56.8016 30.7814C57.0014 31.3277 57.2672 31.9076 57.4025 32.4846C56.93 30.5814 57.8853 29.2809 58.1229 28.1746C57.888 28.0679 57.3942 29.0155 57.2802 26.7688C57.2974 25.7927 57.5433 26.2572 57.6373 26.0168C57.4533 25.9065 56.9678 25.1581 56.6731 23.7231C56.8853 23.3851 57.2445 24.5974 57.5357 24.6465C57.3482 23.5061 57.0261 22.636 57.0124 21.7602C56.1608 19.9175 56.7109 22.0063 56.0214 20.969C55.1149 18.0421 56.7727 20.2896 56.8854 18.9606C58.2575 21.0203 59.0397 24.2147 59.4002 25.5373C59.1255 23.9244 58.6826 22.3614 58.1407 20.8495C58.5589 21.0324 57.4684 17.532 58.6839 19.8499C57.3867 14.9089 53.1364 10.2916 49.2254 8.12598C49.7027 8.57917 50.3064 9.14833 50.0907 9.23797C48.1445 8.03918 48.4865 7.94456 48.2077 7.43801C46.6247 6.76996 46.519 7.49279 45.4717 7.43943C42.4843 5.7974 41.9088 5.97171 39.1598 4.94438L39.2848 5.55053C37.3063 4.86754 36.9794 5.80808 34.8416 5.55195C34.7118 5.44737 35.5269 5.17062 36.1986 5.0703C34.2853 5.33212 34.3746 4.67901 32.5025 5.14216C32.9633 4.80707 33.4523 4.58438 33.944 4.2998C32.3844 4.39798 30.2191 5.24034 30.8873 4.4734C28.3429 5.65013 23.8235 7.30141 21.2873 9.76515L21.2077 9.21307C20.0457 10.658 16.1402 13.5287 15.8291 15.402L15.518 15.4767C14.9143 16.5374 14.5222 17.7391 14.0429 18.8297C13.2524 20.2263 12.8836 19.3676 12.9963 19.5867C11.4408 22.8537 10.6668 25.5984 10 27.8509C10.4752 28.5872 10.0117 32.2846 10.1909 35.2436C9.41077 49.8596 20.0924 64.0494 31.7684 67.3249C33.4798 67.9602 36.0241 67.9375 38.1888 68.0001C35.6354 67.2431 35.3058 67.5995 32.8171 66.701C31.0226 65.8245 30.6298 64.8249 29.3579 63.6816L29.8613 64.6029C27.3684 63.6887 28.4116 63.4717 26.383 62.8065L26.9207 62.0801C26.1124 62.0161 24.7801 60.67 24.4161 59.9223L23.5316 59.9586C22.4699 58.6026 21.9033 57.6229 21.9452 56.8638L21.6595 57.3917C21.3361 56.8161 17.7513 52.2991 19.611 53.3506C19.2655 53.0248 18.8061 52.8192 18.3082 51.8808L18.6866 51.4333C17.7932 50.2402 17.0398 48.7113 17.0975 48.2019C17.5748 48.8692 17.9058 48.9944 18.2341 49.109C15.974 43.3007 15.8469 48.7895 14.1363 43.1968L14.4975 43.167C14.2207 42.7323 14.0511 42.2634 13.8286 41.8017L13.9865 40.176C12.3603 38.2295 13.5319 31.8912 13.7675 28.4158C13.9289 27.0028 15.1252 25.4981 16.0337 23.1383L15.4802 23.0401C16.5392 21.1277 21.5249 15.3571 23.8351 15.6531C24.9538 14.1975 23.6126 15.6474 23.3936 15.2817C25.8514 12.6472 26.624 13.4206 28.2825 12.946C30.0701 11.8469 26.7476 13.3758 27.5951 12.527C30.6875 11.7095 29.7858 10.6673 33.819 10.2525C34.2448 10.5029 32.8322 10.6395 32.4778 10.9647C35.0531 9.65844 40.6288 9.95653 44.252 11.6889C48.4528 13.7244 53.1756 19.7382 53.3624 25.3964L53.5746 25.4554C53.4674 27.705 53.9069 30.3068 53.144 32.6959L53.6597 31.5639Z" fill="url(#paint1_linear_510_4239)"/><path d="M30.2523 25.4112L30.1572 25.8833C30.6005 26.4854 30.9523 27.1375 31.5173 27.6065C31.1105 26.8132 30.8088 26.4854 30.2523 25.4112ZM31.2991 25.3706C31.0645 25.1108 30.9265 24.7987 30.7705 24.4885C30.9193 25.0346 31.2242 25.5041 31.507 25.9821L31.2991 25.3706ZM49.8269 21.3434L49.7281 21.5923C49.5468 22.8812 49.154 24.1566 48.5533 25.3395C49.2172 24.0916 49.6451 22.7265 49.8269 21.3434ZM35.186 3.20113C35.641 3.03473 36.3053 3.10959 36.7897 3C36.1592 3.05276 35.5319 3.08433 34.9127 3.16325L35.186 3.20113ZM19.1895 11.7074C19.2946 12.6788 18.4589 13.0563 19.3744 12.415C19.866 11.3083 19.1832 12.1097 19.1895 11.7074ZM18.1126 16.2054C18.3241 15.5574 18.362 15.1686 18.4427 14.793C17.8596 15.5389 18.1739 15.6981 18.1126 16.2054Z" fill="url(#paint2_linear_510_4239)"/><defs><linearGradient id="paint0_linear_510_4239" x1="38.8134" y1="3.52441" x2="38.8134" y2="24.9691" gradientUnits="userSpaceOnUse"><stop stop-color="#F51866"/><stop offset="1" stop-color="#D70751"/></linearGradient><linearGradient id="paint1_linear_510_4239" x1="34.7001" y1="4.2998" x2="34.7001" y2="68.0001" gradientUnits="userSpaceOnUse"><stop stop-color="#F51866"/><stop offset="1" stop-color="#D70751"/></linearGradient><linearGradient id="paint2_linear_510_4239" x1="33.9544" y1="3" x2="33.9544" y2="27.6065" gradientUnits="userSpaceOnUse"><stop stop-color="#F51866"/><stop offset="1" stop-color="#D70751"/></linearGradient></defs></svg>
