<svg xmlns="http://www.w3.org/2000/svg" width="26" height="25" viewBox="0 0 26 25" fill="none">
  <path d="M12.2931 13.7695H13.7066V18.726H12.2931V13.7695ZM5.10107 20.266C5.10107 19.876 5.41757 19.5595 5.80757 19.5595H20.1926C20.3768 19.5644 20.5518 19.641 20.6803 19.773C20.8088 19.9051 20.8808 20.082 20.8808 20.2663C20.8808 20.4505 20.8088 20.6275 20.6803 20.7595C20.5518 20.8915 20.3768 20.9681 20.1926 20.973H5.80757C5.41757 20.973 5.10107 20.6565 5.10107 20.266Z" fill="#ECECEC"/>
  <path d="M13.0001 22.7799C14.3882 22.7799 15.5136 21.6546 15.5136 20.2664C15.5136 18.8783 14.3882 17.7529 13.0001 17.7529C11.6119 17.7529 10.4866 18.8783 10.4866 20.2664C10.4866 21.6546 11.6119 22.7799 13.0001 22.7799Z" fill="#656766"/>
  <path d="M13.0001 21.5422C13.7048 21.5422 14.2761 20.971 14.2761 20.2662C14.2761 19.5615 13.7048 18.9902 13.0001 18.9902C12.2954 18.9902 11.7241 19.5615 11.7241 20.2662C11.7241 20.971 12.2954 21.5422 13.0001 21.5422Z" fill="#D2D2D2"/>
  <path d="M7.18408 5.12402H18.8161V12.6525H7.18408V5.12402Z" fill="#4E4C4D"/>
  <path d="M18.8749 9.7492H7.1249C6.84922 9.74914 6.57622 9.80338 6.3215 9.90884C6.06678 10.0143 5.83532 10.1689 5.64036 10.3638C5.4454 10.5587 5.29074 10.7901 5.18523 11.0448C5.07971 11.2995 5.0254 11.5725 5.0254 11.8482V13.4567C5.0254 13.7324 5.07971 14.0054 5.18523 14.2601C5.29074 14.5148 5.4454 14.7462 5.64036 14.9411C5.83532 15.136 6.06678 15.2906 6.3215 15.3961C6.57622 15.5015 6.84922 15.5558 7.1249 15.5557H18.8749C19.1506 15.5558 19.4236 15.5015 19.6783 15.3961C19.933 15.2906 20.1645 15.136 20.3594 14.9411C20.5544 14.7462 20.7091 14.5148 20.8146 14.2601C20.9201 14.0054 20.9744 13.7324 20.9744 13.4567V11.8482C20.9744 11.5725 20.9201 11.2995 20.8146 11.0448C20.7091 10.7901 20.5544 10.5587 20.3594 10.3638C20.1645 10.1689 19.933 10.0143 19.6783 9.90884C19.4236 9.80338 19.1506 9.74914 18.8749 9.7492ZM18.8749 2.2207H7.1249C6.84917 2.22057 6.57612 2.27477 6.32134 2.38019C6.06656 2.48562 5.83505 2.64021 5.64004 2.83513C5.44502 3.03006 5.29032 3.26149 5.18477 3.51622C5.07923 3.77095 5.0249 4.04397 5.0249 4.3197V5.9282C5.02484 6.20393 5.0791 6.47697 5.18458 6.73173C5.29007 6.98648 5.44472 7.21795 5.63969 7.41292C5.83465 7.60789 6.06613 7.76254 6.32088 7.86802C6.57563 7.97351 6.84867 8.02777 7.1244 8.0277H18.8744C19.1501 8.02777 19.4232 7.97351 19.6779 7.86802C19.9327 7.76254 20.1641 7.60789 20.3591 7.41292C20.5541 7.21795 20.7087 6.98648 20.8142 6.73173C20.9197 6.47697 20.974 6.20393 20.9739 5.9282V4.3202C20.9739 4.04452 20.9196 3.77153 20.8141 3.51684C20.7086 3.26214 20.5539 3.03073 20.3589 2.83581C20.164 2.64089 19.9325 2.48629 19.6778 2.38084C19.4231 2.27538 19.1501 2.22114 18.8744 2.2212L18.8749 2.2207Z" fill="white"/>
  <path d="M8.11848 6.24184C8.73566 6.24184 9.23598 5.74151 9.23598 5.12434C9.23598 4.50716 8.73566 4.00684 8.11848 4.00684C7.5013 4.00684 7.00098 4.50716 7.00098 5.12434C7.00098 5.74151 7.5013 6.24184 8.11848 6.24184Z" fill="#EC6E62"/>
  <path d="M11.2945 6.24184C11.9117 6.24184 12.412 5.74151 12.412 5.12434C12.412 4.50716 11.9117 4.00684 11.2945 4.00684C10.6773 4.00684 10.177 4.50716 10.177 5.12434C10.177 5.74151 10.6773 6.24184 11.2945 6.24184Z" fill="#85BD57"/>
  <path d="M8.11848 13.7692C8.73566 13.7692 9.23598 13.2689 9.23598 12.6517C9.23598 12.0345 8.73566 11.5342 8.11848 11.5342C7.5013 11.5342 7.00098 12.0345 7.00098 12.6517C7.00098 13.2689 7.5013 13.7692 8.11848 13.7692Z" fill="#EC6E62"/>
  <path d="M11.2945 13.7692C11.9117 13.7692 12.412 13.2689 12.412 12.6517C12.412 12.0345 11.9117 11.5342 11.2945 11.5342C10.6773 11.5342 10.177 12.0345 10.177 12.6517C10.177 13.2689 10.6773 13.7692 11.2945 13.7692Z" fill="#85BD57"/>
</svg>