<svg xmlns="http://www.w3.org/2000/svg" width="16" height="16" viewBox="0 0 16 16" fill="none">
  <path d="M7.63411 1.77996L7.6373 1.78442C7.85721 1.76147 8.08031 1.75 8.30597 1.75C11.8259 1.75 14.6803 4.60381 14.6803 8.12438C14.6803 11.6449 11.8259 14.4988 8.30597 14.4988C7.33478 14.4997 6.37626 14.2783 5.50384 13.8516C4.63141 13.4249 3.86823 12.8042 3.27276 12.037H3.27085V12.0351C2.40055 10.9175 1.92912 9.54086 1.93159 8.12438C1.93159 4.83392 4.42461 2.12609 7.62518 1.7857L7.63411 1.77996ZM8.30597 2.70616L8.20398 2.70679C8.28238 2.86297 8.36652 3.04655 8.44238 3.24862C8.66357 3.83697 8.86691 4.70325 8.50612 5.47136C8.17338 6.18083 7.59841 6.36378 7.17388 6.47405L7.12033 6.48744C6.70154 6.5958 6.54026 6.63724 6.42361 6.81508C6.31525 6.9789 6.33182 7.18607 6.4625 7.61188L6.49182 7.70622C6.54409 7.87068 6.60656 8.06956 6.63843 8.25633C6.67923 8.48836 6.6907 8.78349 6.54154 9.06906C6.41607 9.32356 6.21592 9.53371 5.96785 9.67144C5.75048 9.78937 5.52546 9.83462 5.35718 9.86395L5.2979 9.87478C4.96962 9.93215 4.81281 9.9602 4.66046 10.1234C4.54126 10.2509 4.46477 10.4759 4.42015 10.8112C4.40166 10.9476 4.39082 11.0834 4.37935 11.223L4.37298 11.2975C4.36023 11.4518 4.34493 11.6296 4.30987 11.782V11.7833C4.81701 12.3384 5.43442 12.7817 6.12262 13.0846C6.81083 13.3875 7.55468 13.5435 8.30661 13.5426C9.31121 13.5426 10.2527 13.2685 11.0597 12.7917C10.99 12.7208 10.924 12.6464 10.8621 12.5686C10.6454 12.2958 10.3611 11.8266 10.4599 11.2727C10.507 11.0062 10.6498 10.7831 10.7882 10.6123C10.9295 10.4442 11.0829 10.2865 11.2471 10.1406L11.3478 10.0475C11.4619 9.94363 11.5582 9.85566 11.641 9.76897C11.7507 9.65423 11.7749 9.60196 11.7762 9.59877C11.8195 9.45599 11.7666 9.354 11.7086 9.30938C11.6738 9.28316 11.6311 9.26946 11.5875 9.27049C11.534 9.27049 11.4473 9.28579 11.3319 9.35973C11.2539 9.41083 11.1648 9.44243 11.072 9.45186C10.9793 9.46129 10.8856 9.44827 10.799 9.41391C10.6686 9.35818 10.5598 9.26152 10.4892 9.13854C10.3974 8.98747 10.3458 8.7905 10.312 8.64644C10.2865 8.53553 10.261 8.40931 10.2387 8.29394L10.2132 8.16262C10.1925 8.0461 10.1639 7.9311 10.1278 7.81841L10.115 7.79482C10.1023 7.77197 10.0887 7.74964 10.0742 7.72789C10.0281 7.65904 9.97985 7.59165 9.92952 7.52582L9.8594 7.43467C9.74455 7.28723 9.63485 7.13586 9.53049 6.98081C9.40555 6.79086 9.26467 6.54226 9.22005 6.27708C9.19159 6.12069 9.20366 5.95961 9.25511 5.8092C9.31503 5.64092 9.42403 5.50196 9.56554 5.39551C9.87343 5.16475 10.326 4.64843 10.7276 4.14677C10.9112 3.91793 11.0744 3.70375 11.1967 3.5412C10.3319 2.99422 9.32927 2.70459 8.30597 2.70616Z" fill="#15171C" fill-opacity="0.5"/>
</svg>