<svg xmlns="http://www.w3.org/2000/svg" width="32" height="32" viewBox="0 0 32 32" fill="none">
  <path d="M20.3333 4C20.5986 4 20.8529 4.10536 21.0404 4.29289C21.228 4.48043 21.3333 4.73478 21.3333 5V9.33333H23.6667C24.8159 9.33333 25.9181 9.78988 26.7308 10.6025C27.5435 11.4152 28 12.5174 28 13.6667V22.3333C28 23.4826 27.5435 24.5848 26.7308 25.3975C25.9181 26.2101 24.8159 26.6667 23.6667 26.6667H8.33333C7.18406 26.6667 6.08186 26.2101 5.2692 25.3975C4.45655 24.5848 4 23.4826 4 22.3333V13.6667C4 12.5174 4.45655 11.4152 5.2692 10.6025C6.08186 9.78988 7.18406 9.33333 8.33333 9.33333H10.6667V5C10.6667 4.75835 10.7542 4.52488 10.913 4.34276C11.0719 4.16064 11.2913 4.0422 11.5307 4.00933L11.6667 4H20.3333ZM19.3333 6H12.6667V9.33333H19.3333V6Z" fill="#026DEB"/>
</svg>