<svg width="55" height="54" viewBox="0 0 55 54" fill="none" xmlns="http://www.w3.org/2000/svg">
<g clip-path="url(#clip0_1_9604)">
<path d="M27.5254 4.82495C15.2833 4.82495 5.32617 14.7318 5.32617 26.9079C5.32617 39.0854 15.2833 48.9908 27.5254 48.9908C39.7638 48.9908 49.721 39.0847 49.721 26.9079C49.721 14.7311 39.763 4.82495 27.5254 4.82495Z" fill="#3C6EB4"/>
<path d="M27.5255 6.85156C23.9558 6.85156 20.9282 12.5321 19.8345 20.4275C19.7996 20.6815 19.7657 20.9386 19.7358 21.1972C19.5864 22.4398 19.4852 23.7318 19.4346 25.0619C19.4104 25.6706 19.3984 26.2857 19.3984 26.9088C19.3984 27.5312 19.4104 28.1476 19.4346 28.755C19.4852 30.0848 19.5864 31.3777 19.7358 32.6203C21.4096 32.8358 23.1993 32.9821 25.066 33.0516C25.873 33.0816 26.692 33.0995 27.5254 33.0995C28.3563 33.0995 29.1777 33.0814 29.9822 33.0516C31.8512 32.9821 33.6397 32.8358 35.315 32.6203C35.4993 32.5968 35.6806 32.5712 35.8642 32.5447C42.8359 31.5707 47.686 29.4148 47.686 26.9088C47.6858 15.8309 38.6589 6.85156 27.5255 6.85156Z" fill="#DB3279"/>
<path d="M35.8631 21.2708C35.6609 20.9774 35.444 20.6962 35.2129 20.4262C33.363 18.2571 30.6075 16.8787 27.5241 16.8787C26.5247 16.8787 25.6346 18.4006 25.0648 20.7641C24.8384 21.7064 24.6626 22.7817 24.5494 23.9486C24.4603 24.8837 24.4121 25.8782 24.4121 26.9073C24.4121 27.9363 24.4603 28.9311 24.5494 29.8654C25.49 29.9542 26.4883 30.0019 27.5241 30.0019C28.5587 30.0019 29.5569 29.9542 30.4975 29.8654C32.5652 29.6702 34.3502 29.2746 35.6147 28.7536C36.8634 28.2397 37.6024 27.5998 37.6024 26.9073C37.6023 24.818 36.9613 22.8774 35.8631 21.2708Z" fill="white"/>
</g>
<defs>
<clipPath id="clip0_1_9604">
<rect width="54" height="54" fill="white" transform="translate(0.5)"/>
</clipPath>
</defs>
</svg>
