<svg width="55" height="54" viewBox="0 0 55 54" fill="none" xmlns="http://www.w3.org/2000/svg">
<g clip-path="url(#clip0_1_9562)">
<path d="M27.5473 0.00512695C12.6418 0.00512695 0.560159 12.0868 0.524414 26.9922V47.9028C0.524414 51.2985 3.27674 54.0151 6.67247 54.0151H6.70822H27.5473C42.4527 54.0151 54.5344 41.9334 54.5344 26.9922C54.5344 12.0868 42.4527 0.00512695 27.5473 0.00512695ZM33.0162 11.1217C37.5557 11.1217 41.8451 14.5889 41.8451 19.3787C41.8451 19.8076 41.8451 20.2723 41.7736 20.7727C41.6306 22.0595 40.4868 22.9531 39.2 22.7744C37.9489 22.5957 37.0553 21.3803 37.3055 20.1293C37.3413 19.9863 37.3413 19.7718 37.3413 19.3787C37.3413 16.6621 35.1251 15.6255 33.0162 15.6255C30.9073 15.6255 29.0128 17.377 29.0128 19.3787C29.0485 21.702 29.0128 23.9897 29.0128 26.2773L32.9089 26.2416C35.9472 26.1701 35.983 30.7812 32.9447 30.7454L29.0128 30.7812C29.0128 32.6399 29.0128 32.3182 29.0128 33.2475C29.0128 33.2475 29.0485 35.5352 28.9771 37.2509C28.5124 42.3266 24.1873 46.3658 19.0043 46.3658C13.4997 46.3658 8.99586 41.862 8.99586 36.3573C9.17459 30.7097 13.6784 26.2416 19.3618 26.3131L22.543 26.2773V30.7812L19.3618 30.8169H19.326C16.2163 30.9241 13.5354 33.0331 13.4639 36.3573C13.4639 39.3956 15.9303 41.862 18.9686 41.862C22.0069 41.862 24.4732 39.6458 24.4732 36.393C24.509 30.9956 24.4375 24.9905 24.4732 19.3787C24.4732 19.057 24.4732 18.8067 24.509 18.4493C25.0809 14.3029 28.7983 11.1217 33.0162 11.1217Z" fill="#51A2DA"/>
</g>
<defs>
<clipPath id="clip0_1_9562">
<rect width="54" height="54" fill="white" transform="translate(0.5)"/>
</clipPath>
</defs>
</svg>
