<svg xmlns="http://www.w3.org/2000/svg" width="63" height="63" viewBox="0 0 63 63" fill="none">
  <path d="M54.153 31.5006C54.153 19.8825 44.7347 10.4639 33.1167 10.4639C21.5039 10.4639 12.0893 19.8746 12.0811 31.4857V47.7647C12.0873 50.4011 14.2255 52.5353 16.8636 52.5353H33.1252C44.7393 52.5307 54.153 43.1155 54.153 31.5006Z" fill="#15377E"/>
  <path d="M24.2096 32.8584H31.7699V40.4186C31.7699 44.5919 28.3829 47.9788 24.2096 47.9788C20.0364 47.9788 16.6494 44.5919 16.6494 40.4186C16.6494 36.2454 20.0364 32.8584 24.2096 32.8584Z" stroke="#2364BF" stroke-width="19.877"/>
  <path d="M39.2935 32.873H31.7333V25.3128C31.7333 21.1396 35.1203 17.7526 39.2935 17.7526C43.4668 17.7526 46.8538 21.1396 46.8538 25.3128C46.8538 29.4861 43.4668 32.873 39.2935 32.873Z" stroke="#2364BF" stroke-width="19.877"/>
  <path d="M34.0823 30.5557V40.4073C34.0823 45.8595 29.6618 50.2802 24.2094 50.2802C23.3822 50.2802 22.7941 50.1868 22.0284 49.9866C20.9119 49.6944 19.9994 48.779 19.999 47.7142C19.999 46.4271 20.9333 45.4909 22.3298 45.4909C22.9945 45.4909 23.2357 45.6185 24.2094 45.6185C27.0839 45.6185 29.4156 43.2901 29.4207 40.4156V35.8874C29.4207 35.4816 29.091 35.1529 28.6845 35.1529L25.2611 35.1522C23.9856 35.1522 22.955 34.1348 22.955 32.8558C22.9543 31.5689 23.9961 30.5557 25.2854 30.5557" fill="#F8F9FC"/>
  <path d="M29.4216 35.1748V25.3231C29.4216 19.8709 33.8421 15.4503 39.2945 15.4503C40.1217 15.4503 40.7098 15.5437 41.4755 15.7438C42.592 16.036 43.5045 16.9515 43.5049 18.0163C43.5049 19.3034 42.5706 20.2396 41.1741 20.2396C40.5094 20.2396 40.2683 20.1119 39.2945 20.1119C36.42 20.1119 34.0883 22.4403 34.0832 25.3149V29.8431C34.0832 30.2488 34.413 30.5776 34.8194 30.5776L38.2428 30.5782C39.5183 30.5782 40.5489 31.5956 40.5489 32.8746C40.5496 34.1616 39.5078 35.1748 38.2185 35.1748" fill="#F8F9FC"/>
</svg>