<svg xmlns="http://www.w3.org/2000/svg" width="16" height="16" viewBox="0 0 16 16" fill="none">
  <path d="M6.50124 2.52173C6.20538 2.52173 5.92165 2.63926 5.71245 2.84846C5.50325 3.05766 5.38572 3.34139 5.38572 3.63724V5.70892H3.31405C3.0182 5.70892 2.73446 5.82644 2.52526 6.03564C2.31606 6.24484 2.19853 6.52858 2.19853 6.82443V9.37419C2.19853 9.98995 2.69828 10.4897 3.31405 10.4897H5.38572V12.5614C5.38572 13.1771 5.88547 13.6769 6.50124 13.6769H9.05099C9.34684 13.6769 9.63058 13.5594 9.83978 13.3502C10.049 13.141 10.1665 12.8572 10.1665 12.5614V10.4897H12.2382C12.534 10.4897 12.8178 10.3722 13.027 10.163C13.2362 9.95377 13.3537 9.67004 13.3537 9.37419V6.82443C13.3537 6.52858 13.2362 6.24484 13.027 6.03564C12.8178 5.82644 12.534 5.70892 12.2382 5.70892H10.1665V3.63724C10.1665 3.34139 10.049 3.05766 9.83978 2.84846C9.63058 2.63926 9.34684 2.52173 9.05099 2.52173H6.50124Z" fill="#15171C" fill-opacity="0.5"/>
</svg>