<svg width="54" height="54" viewBox="0 0 54 54" fill="none" xmlns="http://www.w3.org/2000/svg">
<g clip-path="url(#clip0_1_9636)">
<path d="M30.8399 15.4141H29.2749V16.9791H30.8399V15.4141ZM26.9441 28.7341H23.8027V30.2991H26.9441V28.7341ZM41.0861 28.7341H37.9447V30.2991H41.0861V28.7341Z" fill="#0BBAC7"/>
<path d="M52.0756 38.9015V29.4885H50.5106V38.9015H48.9455V23.2169H45.7928V10.6738H8.09593V23.2169H4.94327V38.9015H3.37819V29.4885H1.80186V38.9015H0.248047V41.9753H3.38945V43.5404H8.10719V41.9753H9.67227V43.5404H14.39V41.9753H39.5213V43.5404H44.239V41.9753H45.8041V43.5404H50.5218V41.9753H53.6632V38.9015H52.0981H52.0756ZM35.5579 12.2727H43.4171V15.4141H41.0863V21.6856H37.9449V15.4141H35.5579V12.2727ZM10.4267 18.5442V12.2727H16.7095V14.5921H13.5681V16.1572H16.7095V18.5442H13.5681V21.6856H10.4267V18.5555V18.5442ZM17.5314 28.7341V30.2992H12.8137V33.4406H17.5314V38.1471H8.09593V25.604H17.5202V28.7454L17.5314 28.7341ZM18.2858 21.6856V12.2727H21.4272V18.5442H24.5686V21.6856H18.2745H18.2858ZM31.6621 28.7341V38.1471H26.9444V33.4406H23.803V38.1471H19.0852V27.169H20.6503V25.604H30.0745V27.169H31.6396V28.7341H31.6621ZM30.8627 21.6856V18.5442H29.2976V21.6856H26.1562V13.849H27.7213V12.2839H32.439V13.849H34.0041V21.6856H30.8739H30.8627ZM45.8153 28.7341V33.4406H44.2503V35.0057H45.8153V38.1471H41.0976V35.0169H39.5325V33.4518H37.9674V38.1583H33.2497V25.6152H45.8041V28.7454L45.8153 28.7341Z" fill="#0BBAC7"/>
</g>
<defs>
<clipPath id="clip0_1_9636">
<rect width="54" height="54" fill="white"/>
</clipPath>
</defs>
</svg>
