<svg width="55" height="54" viewBox="0 0 55 54" fill="none" xmlns="http://www.w3.org/2000/svg">
<g clip-path="url(#clip0_1_9772)">
<path d="M48.2691 6.50245C50.5201 8.75233 44.2799 18.6425 43.2249 19.6979C42.17 20.7512 39.4905 19.7821 37.2405 17.5317C34.9896 15.2817 34.02 12.6017 35.0749 11.5467C36.1293 10.4913 46.0187 4.25145 48.2691 6.50245Z" fill="#B5010F"/>
<path d="M16.7029 8.88413C13.2665 6.93428 8.37689 4.7654 6.82083 6.32101C5.24472 7.89659 7.49306 12.8966 9.46351 16.339C11.217 13.2905 13.7113 10.7245 16.7029 8.88413Z" fill="#B5010F"/>
<path d="M44.8364 18.9218C45.1528 19.9952 45.096 20.8817 44.5827 21.3939C43.3841 22.5931 40.146 21.3166 37.227 18.5386C37.0233 18.3559 36.8212 18.1664 36.6227 17.9674C35.5672 16.9114 34.746 15.7875 34.2207 14.7526C33.1983 12.9185 32.9425 11.2987 33.7153 10.5259C34.1364 10.1053 34.8102 9.99052 35.632 10.1385C36.1679 9.79941 36.8006 9.42199 37.4945 9.03504C34.6734 7.56372 31.4658 6.73254 28.0635 6.73254C16.7785 6.73254 7.62973 15.8798 7.62973 27.1656C7.62973 38.4491 16.7785 47.5979 28.0635 47.5979C39.3486 47.5979 48.4965 38.4499 48.4965 27.1656C48.4965 23.5212 47.54 20.1037 45.8692 17.1408C45.508 17.8 45.157 18.4038 44.8364 18.9218Z" fill="#B5010F"/>
</g>
<defs>
<clipPath id="clip0_1_9772">
<rect width="54" height="54" fill="white" transform="translate(0.5)"/>
</clipPath>
</defs>
</svg>
