<svg xmlns="http://www.w3.org/2000/svg" width="32" height="32" viewBox="0 0 32 32" fill="none">
  <path d="M16 2.6665C8.63596 2.6665 2.66663 8.63584 2.66663 15.9998C2.66663 23.3638 8.63596 29.3332 16 29.3332C23.364 29.3332 29.3333 23.3638 29.3333 15.9998C29.3333 8.63584 23.364 2.6665 16 2.6665ZM19.3226 12.4798C19.2837 12.7422 19.1422 12.9784 18.9291 13.1364C18.7161 13.2945 18.449 13.3614 18.1866 13.3225C17.9242 13.2836 17.688 13.1421 17.53 12.929C17.372 12.716 17.3051 12.4489 17.344 12.1865C17.56 10.7332 18.8413 9.6665 20.3333 9.6665C21.8253 9.6665 23.1066 10.7332 23.3226 12.1865C23.3615 12.4489 23.2946 12.716 23.1366 12.929C22.9785 13.1421 22.7423 13.2836 22.48 13.3225C22.2176 13.3614 21.9505 13.2945 21.7374 13.1364C21.5244 12.9784 21.3829 12.7422 21.344 12.4798C21.28 12.0492 20.8773 11.6665 20.3333 11.6665C19.7893 11.6665 19.3866 12.0492 19.3226 12.4798ZM16 23.9998C11.8106 23.9998 9.01729 20.8492 8.66663 16.9998H23.3333C22.9826 20.8492 20.1893 23.9998 16 23.9998ZM11.6666 11.6665C11.1226 11.6665 10.72 12.0492 10.656 12.4798C10.6171 12.7422 10.4755 12.9784 10.2625 13.1364C10.0494 13.2945 9.78235 13.3614 9.51996 13.3225C9.25757 13.2836 9.02138 13.1421 8.86335 12.929C8.70532 12.716 8.63839 12.4489 8.67729 12.1865C8.89329 10.7332 10.1746 9.6665 11.6666 9.6665C13.1586 9.6665 14.44 10.7332 14.656 12.1865C14.6752 12.3164 14.6687 12.4489 14.6368 12.5763C14.6049 12.7037 14.5481 12.8235 14.4699 12.929C14.3917 13.0345 14.2934 13.1236 14.1807 13.1911C14.0681 13.2586 13.9432 13.3032 13.8133 13.3225C13.6834 13.3418 13.5509 13.3352 13.4235 13.3033C13.2961 13.2714 13.1763 13.2147 13.0708 13.1364C12.9653 13.0582 12.8762 12.9599 12.8087 12.8473C12.7412 12.7346 12.6966 12.6098 12.6773 12.4798C12.6133 12.0492 12.2106 11.6665 11.6666 11.6665Z" fill="#026DEB"/>
</svg>