<svg xmlns="http://www.w3.org/2000/svg" width="16" height="16" viewBox="0 0 16 16" fill="none">
  <g opacity="0.72" clip-path="url(#clip0_1306_778)">
    <path fill-rule="evenodd" clip-rule="evenodd" d="M7.99971 15.4284C8.5434 15.4284 9.07344 15.37 9.58391 15.2591V9.81992C8.68505 9.79269 7.82871 9.42373 7.19093 8.78595C6.52785 8.12288 6.15534 7.22355 6.15534 6.28582C6.15534 5.34809 6.52785 4.44877 7.19093 3.7857C7.854 3.12262 8.75332 2.75011 9.69105 2.75011H13.2555C11.911 1.40401 10.0526 0.571289 7.99971 0.571289C3.93288 0.571289 0.629334 3.83929 0.571899 7.89247H3.428C4.36573 7.89247 5.26505 8.26498 5.92813 8.92806C6.5912 9.59113 6.96371 10.4905 6.96371 11.4282V15.3568C7.30227 15.404 7.64814 15.4284 7.99971 15.4284ZM4.46371 14.5345V11.4282C4.46371 11.1535 4.35459 10.8901 4.16036 10.6958C3.96613 10.5016 3.70269 10.3925 3.428 10.3925H0.96486C1.57032 12.1732 2.83291 13.6502 4.46371 14.5345ZM12.0839 9.71439V14.2059C14.0987 12.8773 15.4283 10.5938 15.4283 7.99986C15.4283 7.02845 15.2418 6.10059 14.9027 5.25011H9.69105C9.41637 5.25011 9.15293 5.35923 8.95869 5.55346C8.76446 5.7477 8.65534 6.01113 8.65534 6.28582C8.65534 6.56051 8.76446 6.82395 8.95869 7.01818C9.15293 7.21242 9.41637 7.32154 9.69105 7.32154C10.3257 7.32154 10.9343 7.57364 11.3831 8.02239C11.8318 8.47114 12.0839 9.07977 12.0839 9.71439Z" fill="#15171C"/>
    <path d="M9.58391 15.2591L9.72037 15.8873C10.0159 15.8231 10.2268 15.5616 10.2268 15.2591H9.58391ZM9.58391 9.81992H10.2268C10.2268 9.47245 9.95068 9.18787 9.60337 9.17735L9.58391 9.81992ZM7.19093 8.78595L6.73636 9.24052L7.19093 8.78595ZM7.19093 3.7857L6.73636 3.33113L7.19093 3.7857ZM13.2555 2.75011V3.39297C13.5155 3.39297 13.7498 3.23642 13.8494 2.99629C13.9489 2.75616 13.8941 2.47972 13.7104 2.2958L13.2555 2.75011ZM0.571899 7.89247L-0.0708932 7.88336C-0.0733313 8.05542 -0.00668859 8.22127 0.114122 8.34381C0.234932 8.46634 0.399824 8.53533 0.571899 8.53533L0.571899 7.89247ZM5.92813 8.92806L5.47356 9.38263H5.47356L5.92813 8.92806ZM6.96371 15.3568H6.32086C6.32086 15.6775 6.55724 15.9491 6.87487 15.9935L6.96371 15.3568ZM4.46371 14.5345L4.15727 15.0996C4.35648 15.2076 4.59784 15.2028 4.79255 15.0869C4.98727 14.971 5.10657 14.7611 5.10657 14.5345H4.46371ZM0.96486 10.3925V9.74961C0.757538 9.74961 0.562942 9.8496 0.442223 10.0181C0.321505 10.1867 0.289483 10.4031 0.356222 10.5994L0.96486 10.3925ZM12.0839 14.2059H11.4411C11.4411 14.4424 11.5709 14.6598 11.7792 14.772C11.9874 14.8841 12.2404 14.8728 12.4378 14.7426L12.0839 14.2059ZM14.9027 5.25011L15.4999 5.01203C15.4024 4.76761 15.1659 4.60725 14.9027 4.60725V5.25011ZM8.95869 5.55346L9.41326 6.00803V6.00803L8.95869 5.55346ZM11.3831 8.02239L10.9285 8.47696L10.9285 8.47696L11.3831 8.02239ZM9.44745 14.6309C8.98153 14.7321 8.49723 14.7856 7.99971 14.7856V16.0713C8.58956 16.0713 9.16535 16.0079 9.72037 15.8873L9.44745 14.6309ZM8.94105 9.81992V15.2591H10.2268V9.81992H8.94105ZM6.73636 9.24052C7.4901 9.99426 8.50214 10.4303 9.56445 10.4625L9.60337 9.17735C8.86796 9.15508 8.16731 8.8532 7.6455 8.33138L6.73636 9.24052ZM5.51248 6.28582C5.51248 7.39405 5.95272 8.45688 6.73636 9.24052L7.6455 8.33138C7.10298 7.78887 6.7982 7.05306 6.7982 6.28582H5.51248ZM6.73636 3.33113C5.95272 4.11476 5.51248 5.1776 5.51248 6.28582H6.7982C6.7982 5.51859 7.10298 4.78278 7.6455 4.24026L6.73636 3.33113ZM9.69105 2.10725C8.58283 2.10725 7.51999 2.54749 6.73636 3.33113L7.6455 4.24026C8.18801 3.69775 8.92382 3.39297 9.69105 3.39297V2.10725ZM13.2555 2.10725H9.69105V3.39297H13.2555V2.10725ZM7.99971 1.21415C9.87512 1.21415 11.5718 1.9741 12.8007 3.20442L13.7104 2.2958C12.2502 0.833926 10.2301 -0.0715681 7.99971 -0.0715681V1.21415ZM1.21469 7.90158C1.26715 4.19935 4.28487 1.21415 7.99971 1.21415V-0.0715681C3.58089 -0.0715681 -0.00848603 3.47923 -0.0708932 7.88336L1.21469 7.90158ZM0.571899 8.53533H3.428V7.24961H0.571899V8.53533ZM3.428 8.53533C4.19523 8.53533 4.93104 8.84011 5.47356 9.38263L6.3827 8.47349C5.59906 7.68985 4.53623 7.24961 3.428 7.24961V8.53533ZM5.47356 9.38263C6.01607 9.92514 6.32086 10.6609 6.32086 11.4282H7.60657C7.60657 10.32 7.16633 9.25712 6.3827 8.47349L5.47356 9.38263ZM6.32086 11.4282V15.3568H7.60657V11.4282H6.32086ZM7.99971 14.7856C7.67795 14.7856 7.36177 14.7632 7.05256 14.7201L6.87487 15.9935C7.24278 16.0448 7.61833 16.0713 7.99971 16.0713V14.7856ZM5.10657 14.5345V11.4282H3.82086V14.5345H5.10657ZM5.10657 11.4282C5.10657 10.983 4.92972 10.556 4.61493 10.2413L3.70579 11.1504C3.77947 11.2241 3.82086 11.324 3.82086 11.4282H5.10657ZM4.61493 10.2413C4.30014 9.92646 3.87318 9.74961 3.428 9.74961V11.0353C3.53219 11.0353 3.63212 11.0767 3.70579 11.1504L4.61493 10.2413ZM3.428 9.74961H0.96486V11.0353H3.428V9.74961ZM4.77015 13.9694C3.27983 13.1612 2.12625 11.8112 1.5735 10.1855L0.356222 10.5994C1.01439 12.5352 2.386 14.1391 4.15727 15.0996L4.77015 13.9694ZM12.7268 14.2059V9.71439H11.4411V14.2059H12.7268ZM14.7854 7.99986C14.7854 10.3687 13.5721 12.4545 11.73 13.6693L12.4378 14.7426C14.6254 13.3001 16.0711 10.819 16.0711 7.99986H14.7854ZM14.3056 5.48818C14.615 6.26418 14.7854 7.11133 14.7854 7.99986H16.0711C16.0711 6.94556 15.8687 5.93699 15.4999 5.01203L14.3056 5.48818ZM9.69105 5.89297H14.9027V4.60725H9.69105V5.89297ZM9.41326 6.00803C9.48694 5.93436 9.58686 5.89297 9.69105 5.89297V4.60725C9.24587 4.60725 8.81892 4.7841 8.50413 5.09889L9.41326 6.00803ZM9.2982 6.28582C9.2982 6.18163 9.33959 6.08171 9.41326 6.00803L8.50413 5.09889C8.18933 5.41369 8.01248 5.84064 8.01248 6.28582H9.2982ZM9.41326 6.56361C9.33959 6.48994 9.2982 6.39001 9.2982 6.28582H8.01248C8.01248 6.73101 8.18933 7.15796 8.50413 7.47275L9.41326 6.56361ZM9.69105 6.67868C9.58686 6.67868 9.48694 6.63729 9.41326 6.56361L8.50413 7.47275C8.81892 7.78755 9.24587 7.96439 9.69105 7.96439V6.67868ZM11.8376 7.56782C11.2683 6.99851 10.4962 6.67868 9.69105 6.67868V7.96439C10.1552 7.96439 10.6003 8.14877 10.9285 8.47696L11.8376 7.56782ZM12.7268 9.71439C12.7268 8.90928 12.4069 8.13713 11.8376 7.56782L10.9285 8.47696C11.2567 8.80515 11.4411 9.25027 11.4411 9.71439H12.7268Z" fill="#15171C"/>
  </g>
  <defs>
    <clipPath id="clip0_1306_778">
      <rect width="16" height="16" fill="white"/>
    </clipPath>
  </defs>
</svg>