<svg width="101" height="22" viewBox="0 0 101 22" fill="none" xmlns="http://www.w3.org/2000/svg">
<path d="M7.238 17.352C5.11133 17.352 3.46133 16.8753 2.288 15.922C1.12933 14.9687 0.542667 13.6047 0.528 11.83H3.454C3.46867 12.9447 3.79867 13.744 4.444 14.228C5.104 14.712 6.06467 14.954 7.326 14.954C8.35267 14.954 9.13733 14.7633 9.68 14.382C10.2227 13.986 10.494 13.4213 10.494 12.688C10.494 12.072 10.2593 11.6027 9.79 11.28C9.33533 10.9573 8.49933 10.6713 7.282 10.422L5.962 10.158C2.60333 9.52733 0.924 7.94333 0.924 5.406C0.924 4.05667 1.43733 2.986 2.464 2.194C3.49067 1.38733 4.91333 0.983999 6.732 0.983999C8.8 0.983999 10.362 1.424 11.418 2.304C12.4887 3.184 13.0533 4.416 13.112 6H10.23C10.1713 5.10533 9.87067 4.44533 9.328 4.02C8.8 3.59467 7.94933 3.382 6.776 3.382C5.86667 3.382 5.17 3.55067 4.686 3.888C4.202 4.22533 3.96 4.702 3.96 5.318C3.96 5.94867 4.18 6.43267 4.62 6.77C5.07467 7.10733 5.874 7.39333 7.018 7.628L8.382 7.892C10.2153 8.25867 11.5353 8.80867 12.342 9.542C13.1633 10.2607 13.574 11.258 13.574 12.534C13.574 14.0593 13.0167 15.2473 11.902 16.098C10.7873 16.934 9.23267 17.352 7.238 17.352ZM26.209 11.522V12.182H17.717C17.8197 13.15 18.1204 13.8833 18.619 14.382C19.1324 14.866 19.8144 15.108 20.665 15.108C21.9264 15.108 22.7917 14.5653 23.261 13.48H25.923C25.6297 14.6387 25.0137 15.5627 24.075 16.252C23.1364 16.9267 21.9924 17.264 20.643 17.264C18.9564 17.264 17.5924 16.7213 16.551 15.636C15.5097 14.5507 14.989 13.1133 14.989 11.324C14.989 9.53467 15.5024 8.09733 16.529 7.012C17.5704 5.92667 18.927 5.384 20.599 5.384C22.315 5.384 23.679 5.94867 24.691 7.078C25.703 8.20733 26.209 9.68867 26.209 11.522ZM20.577 7.54C18.949 7.54 18.003 8.442 17.739 10.246H23.437C23.3197 9.41 23.0117 8.75 22.513 8.266C22.0144 7.782 21.369 7.54 20.577 7.54ZM34.071 5.472C34.3203 5.472 34.5476 5.48667 34.753 5.516V8.068H34.049C32.993 8.068 32.179 8.33933 31.607 8.882C31.0496 9.41 30.771 10.1947 30.771 11.236V17H27.999V5.648H30.683V7.672C31.3136 6.20533 32.443 5.472 34.071 5.472ZM43.0203 8.684L44.1203 5.648H47.0023L42.7783 17H39.5883L35.3863 5.648H38.3563L39.4563 8.706C39.9696 10.3047 40.5636 12.2333 41.2383 14.492C41.781 12.6733 42.375 10.7373 43.0203 8.684ZM58.3282 11.522V12.182H49.8362C49.9389 13.15 50.2395 13.8833 50.7382 14.382C51.2515 14.866 51.9335 15.108 52.7842 15.108C54.0455 15.108 54.9109 14.5653 55.3802 13.48H58.0422C57.7489 14.6387 57.1329 15.5627 56.1942 16.252C55.2555 16.9267 54.1115 17.264 52.7622 17.264C51.0755 17.264 49.7115 16.7213 48.6702 15.636C47.6289 14.5507 47.1082 13.1133 47.1082 11.324C47.1082 9.53467 47.6215 8.09733 48.6482 7.012C49.6895 5.92667 51.0462 5.384 52.7182 5.384C54.4342 5.384 55.7982 5.94867 56.8102 7.078C57.8222 8.20733 58.3282 9.68867 58.3282 11.522ZM52.6962 7.54C51.0682 7.54 50.1222 8.442 49.8582 10.246H55.5562C55.4389 9.41 55.1309 8.75 54.6322 8.266C54.1335 7.782 53.4882 7.54 52.6962 7.54ZM66.1901 5.472C66.4394 5.472 66.6668 5.48667 66.8721 5.516V8.068H66.1681C65.1121 8.068 64.2981 8.33933 63.7261 8.882C63.1688 9.41 62.8901 10.1947 62.8901 11.236V17H60.1181V5.648H62.8021V7.672C63.4328 6.20533 64.5621 5.472 66.1901 5.472ZM77.561 20.74H67.353V18.628H77.561V20.74Z" fill="#15171C"/>
<path d="M85.2371 8.684L86.3371 5.648H89.2191L84.9951 17H81.8051L77.6031 5.648H80.5731L81.6731 8.706C82.1864 10.3047 82.7804 12.2333 83.4551 14.492C83.9978 12.6733 84.5918 10.7373 85.2371 8.684ZM96.9011 8.508L97.8251 5.648H100.729L96.3511 17.924C95.8817 19.2147 95.2951 20.102 94.5911 20.586C93.8724 21.0847 92.8311 21.334 91.4671 21.334C91.0124 21.334 90.6091 21.312 90.2571 21.268V19.09H91.3131C91.9144 19.09 92.3764 18.9213 92.6991 18.584C93.0217 18.2467 93.1831 17.8067 93.1831 17.264C93.1831 16.7213 93.0071 15.9587 92.6551 14.976L89.3551 5.648H92.3471L93.2711 8.486C93.9164 10.51 94.5177 12.622 95.0751 14.822C95.5151 13.1647 96.1237 11.06 96.9011 8.508Z" fill="#026DEB"/>
</svg>
