<svg xmlns="http://www.w3.org/2000/svg" width="32" height="32" viewBox="0 0 32 32" fill="none">
  <path d="M4 7.6665C4 7.40129 4.10536 7.14693 4.29289 6.9594C4.48043 6.77186 4.73478 6.6665 5 6.6665C8.55067 6.6665 12.0107 5.40917 15.4 2.8665C15.5731 2.73668 15.7836 2.6665 16 2.6665C16.2164 2.6665 16.4269 2.73668 16.6 2.8665C19.9893 5.40917 23.4493 6.6665 27 6.6665C27.2652 6.6665 27.5196 6.77186 27.7071 6.9594C27.8946 7.14693 28 7.40129 28 7.6665V14.6665C28 15.1172 27.9813 15.5598 27.9467 15.9945C26.1815 14.8833 24.0749 14.446 22.0134 14.7628C19.9518 15.0795 18.0737 16.1291 16.7236 17.719C15.3735 19.3088 14.642 21.3322 14.6634 23.4178C14.6848 25.5034 15.4576 27.5114 16.84 29.0732L16.3667 29.2638C16.131 29.3567 15.869 29.3567 15.6333 29.2638C7.944 26.2345 4 21.3332 4 14.6665V7.6665ZM30.6667 23.3332C30.6667 21.3883 29.894 19.523 28.5188 18.1477C27.1435 16.7725 25.2783 15.9998 23.3333 15.9998C21.3884 15.9998 19.5231 16.7725 18.1479 18.1477C16.7726 19.523 16 21.3883 16 23.3332C16 25.2781 16.7726 27.1434 18.1479 28.5186C19.5231 29.8939 21.3884 30.6665 23.3333 30.6665C25.2783 30.6665 27.1435 29.8939 28.5188 28.5186C29.894 27.1434 30.6667 25.2781 30.6667 23.3332ZM27.8053 20.1945C27.8674 20.2564 27.9167 20.33 27.9503 20.411C27.9839 20.492 28.0012 20.5788 28.0012 20.6665C28.0012 20.7542 27.9839 20.841 27.9503 20.922C27.9167 21.003 27.8674 21.0766 27.8053 21.1385L22.472 26.4718C22.4101 26.5339 22.3365 26.5832 22.2555 26.6168C22.1745 26.6504 22.0877 26.6677 22 26.6677C21.9123 26.6677 21.8255 26.6504 21.7445 26.6168C21.6635 26.5832 21.5899 26.5339 21.528 26.4718L18.8613 23.8052C18.7361 23.68 18.6658 23.5102 18.6658 23.3332C18.6658 23.1561 18.7361 22.9864 18.8613 22.8612C18.9865 22.736 19.1563 22.6657 19.3333 22.6657C19.5104 22.6657 19.6802 22.736 19.8053 22.8612L22 25.0572L26.8613 20.1945C26.9233 20.1324 26.9968 20.0832 27.0778 20.0496C27.1588 20.0159 27.2456 19.9986 27.3333 19.9986C27.421 19.9986 27.5078 20.0159 27.5888 20.0496C27.6698 20.0832 27.7434 20.1324 27.8053 20.1945Z" fill="#026DEB"/>
</svg>