<svg xmlns="http://www.w3.org/2000/svg" width="14" height="14" viewBox="0 0 14 14" fill="none">
  <path d="M11.6819 9.91707C10.0707 12.7077 6.50245 13.6638 3.71178 12.0527C2.96143 11.6205 2.3171 11.0262 1.82586 10.3132C1.7878 10.258 1.76293 10.1947 1.75318 10.1284C1.74343 10.062 1.74907 9.99436 1.76965 9.93054C1.79022 9.86672 1.8252 9.80848 1.87186 9.76033C1.91853 9.71217 1.97564 9.67539 2.03878 9.65282C4.2362 8.86649 5.41336 7.95532 6.09645 6.65099C6.81511 5.27841 7.0012 3.77515 6.49836 1.71424C6.48215 1.64791 6.48169 1.5787 6.49701 1.51215C6.51234 1.44561 6.54303 1.38358 6.58663 1.33102C6.63023 1.27847 6.68552 1.23684 6.74809 1.20949C6.81066 1.18213 6.87876 1.16981 6.94695 1.17349C7.86252 1.22277 8.75344 1.48803 9.54686 1.94757C12.3375 3.55874 13.2936 7.12699 11.6819 9.91707Z" fill="#15171C"/>
</svg>