<svg xmlns="http://www.w3.org/2000/svg" width="32" height="32" viewBox="0 0 32 32" fill="none">
  <path d="M16 6.66667C13.891 6.66659 11.8294 7.29166 10.0756 8.46289C8.32185 9.63412 6.95461 11.2989 6.14669 13.247C5.33877 15.195 5.12643 17.3388 5.53651 19.4075C5.94659 21.4761 6.96068 23.3768 8.45064 24.8693C8.70047 25.1197 8.84062 25.4591 8.84024 25.8127C8.83986 26.1664 8.699 26.5055 8.44864 26.7553C8.19827 27.0052 7.85892 27.1453 7.50522 27.1449C7.15153 27.1446 6.81247 27.0037 6.56264 26.7533C5.3255 25.5166 4.34456 24.048 3.67601 22.4315C3.00746 20.8151 2.66445 19.0826 2.66664 17.3333C2.66664 9.96933 8.63597 4 16 4C23.364 4 29.3333 9.96933 29.3333 17.3333C29.3333 18.9747 29.036 20.5467 28.4933 22H27.4C27.9053 21.5324 28.3084 20.9652 28.5838 20.3342C28.8592 19.7031 29.0009 19.0219 29 18.3333C28.9987 17.3714 28.7205 16.4301 28.1987 15.622C27.6769 14.8139 26.9335 14.173 26.0573 13.776C25.3213 11.6971 23.9592 9.89733 22.1584 8.62423C20.3576 7.35113 18.2067 6.66725 16.0013 6.66667H16ZM20.6133 14.656C21.2793 14.0411 22.1002 13.6193 22.988 13.436C22.4303 12.4381 21.6652 11.5714 20.7442 10.8941C19.8233 10.2168 18.7679 9.74481 17.6492 9.50982C16.5304 9.27483 15.3743 9.28233 14.2587 9.53182C13.1431 9.78131 12.0939 10.267 11.1818 10.9561C10.2698 11.6453 9.51599 12.5219 8.97127 13.5269C8.42655 14.532 8.10355 15.6421 8.02403 16.7825C7.9445 17.9228 8.11031 19.067 8.51026 20.1379C8.91022 21.2088 9.53504 22.1816 10.3426 22.9907C10.4665 23.1145 10.6136 23.2128 10.7754 23.2799C10.9373 23.3469 11.1108 23.3814 11.286 23.3814C11.4612 23.3814 11.6346 23.3469 11.7965 23.2799C11.9584 23.2128 12.1054 23.1145 12.2293 22.9907C12.3532 22.8668 12.4515 22.7197 12.5185 22.5579C12.5855 22.396 12.62 22.2225 12.62 22.0473C12.62 21.8721 12.5855 21.6987 12.5185 21.5368C12.4515 21.3749 12.3532 21.2279 12.2293 21.104C11.6939 20.5673 11.279 19.9226 11.0124 19.2129C10.7458 18.5032 10.6336 17.7448 10.6832 16.9883C10.7328 16.2318 10.9432 15.4946 11.3002 14.8258C11.6572 14.157 12.1527 13.572 12.7536 13.1098C13.3546 12.6476 14.0471 12.3188 14.7851 12.1454C15.5232 11.972 16.2897 11.9579 17.0336 12.1041C17.7775 12.2503 18.4816 12.5534 19.0991 12.9932C19.7167 13.433 20.2333 13.9994 20.6146 14.6547L20.6133 14.656ZM16 14.6667C15.2927 14.6667 14.6144 14.9476 14.1144 15.4477C13.6143 15.9478 13.3333 16.6261 13.3333 17.3333C13.3333 18.0406 13.6143 18.7189 14.1144 19.219C14.6144 19.719 15.2927 20 16 20C16.7072 20 17.3855 19.719 17.8856 19.219C18.3857 18.7189 18.6666 18.0406 18.6666 17.3333C18.6666 16.6261 18.3857 15.9478 17.8856 15.4477C17.3855 14.9476 16.7072 14.6667 16 14.6667ZM26.6666 15.816C26.3241 15.4526 25.9108 15.1632 25.4522 14.9656C24.9936 14.7679 24.4994 14.6662 24 14.6667C23.1562 14.6668 22.3383 14.958 21.6843 15.491C21.0302 16.0241 20.58 16.7664 20.4096 17.5927C20.2391 18.4191 20.3589 19.279 20.7487 20.0273C21.1385 20.7756 21.7745 21.3666 22.5494 21.7006C23.3242 22.0345 24.1906 22.091 25.0022 21.8606C25.8139 21.6301 26.5213 21.1267 27.005 20.4354C27.4887 19.744 27.7192 18.907 27.6575 18.0655C27.5959 17.224 27.2459 16.4295 26.6666 15.816ZM19.3333 23.3333H19.3146C18.7874 23.3383 18.2835 23.5511 17.9125 23.9257C17.5414 24.3002 17.3333 24.8061 17.3333 25.3333V26C17.3333 26.68 17.4986 27.364 17.8173 28.0053C18.2209 28.8018 18.8121 29.4882 19.54 30.0053C20.6546 30.812 22.1626 31.3333 24.0013 31.3333C28.188 31.3333 30.668 28.628 30.668 26V25.3333C30.668 24.8029 30.4573 24.2942 30.0822 23.9191C29.7071 23.544 29.1984 23.3333 28.668 23.3333H19.3346H19.3333Z" fill="#026DEB"/>
</svg>