<svg xmlns="http://www.w3.org/2000/svg" width="60" height="60" viewBox="0 0 74 74" fill="none"><path d="M47.3978 37.7616C47.3978 31.986 42.6819 27.3027 36.7183 27.3027C30.7526 27.3027 26.0409 31.9678 26.0409 37.7616C26.0409 39.902 26.7078 41.9897 27.9494 43.7294C29.1816 45.4615 30.9367 46.7662 32.9648 47.4578L28.7681 68.9356H44.5226L40.4717 47.4578C44.5207 45.9041 47.3958 42.2749 47.3958 37.7596L47.3978 37.7616Z" fill="#1A3967"/><path d="M70.5159 37.6049C70.5159 19.5394 55.4264 4.86621 36.8694 4.86621C18.3117 4.86621 3.2168 19.5249 3.2168 37.6049C3.2168 49.6033 9.84107 60.0441 19.712 65.6683L21.8298 51.6731C18.5439 48.1326 16.707 43.5164 16.6748 38.7177C16.6748 27.9797 25.6591 19.2444 36.7017 19.2444C47.7422 19.2444 56.7307 27.9797 56.7307 38.7198C56.7336 43.5671 54.9028 48.2412 51.5963 51.8289L53.7304 65.8241C63.8167 60.1941 70.5171 49.6077 70.5171 37.61" fill="url(#paint0_linear_510_4231)"/><defs><linearGradient id="paint0_linear_510_4231" x1="36.867" y1="4.86621" x2="36.867" y2="65.8241" gradientUnits="userSpaceOnUse"><stop stop-color="#EA681F"/><stop offset="1" stop-color="#E27110"/></linearGradient></defs></svg>