<svg width="55" height="54" viewBox="0 0 55 54" fill="none" xmlns="http://www.w3.org/2000/svg">
<g clip-path="url(#clip0_1_9642)">
<mask id="mask0_1_9642" style="mask-type:luminance" maskUnits="userSpaceOnUse" x="0" y="3" width="55" height="48">
<path d="M54.5458 3.8595H0.500046V50.6818H54.5458V3.8595Z" fill="white"/>
</mask>
<g mask="url(#mask0_1_9642)">
<path d="M31.3961 3.86047C30.9481 4.90566 31.0476 6.14991 30.749 7.2947C30.6495 7.54354 30.4007 8.33989 30.0522 8.29012C29.3057 8.19059 29.7039 6.74719 28.808 6.69742L29.0568 8.78787C27.7628 8.93717 27.9121 6.89657 27.4144 6.10022C26.8171 5.15457 26.6678 6.54815 26.7176 6.94633C26.7674 7.24496 26.8171 7.49382 26.8171 7.74261C26.8669 8.24035 26.8669 8.63849 26.8171 9.08647C25.5729 9.08647 26.0208 7.444 25.1249 7.19517L25.1747 9.186C23.7811 9.186 23.1838 7.94175 22.5369 6.84672C22.288 6.39879 21.9396 5.5527 21.3423 5.80154C21.641 7.04579 22.288 8.19059 22.3875 9.4846C22.3875 9.83305 22.0889 10.6792 21.641 10.48C20.5958 10.1317 20.7451 8.19059 19.8492 7.69284C19.6502 7.59331 19.4012 7.69284 19.2022 7.69284C19.2022 8.68826 19.6502 9.93258 19.9985 10.8782C20.0981 11.0773 20.2971 11.8239 19.8492 11.7741C19.0529 11.7741 18.8538 10.1814 18.0575 10.3805C18.157 10.7787 18.4058 11.1271 18.5551 11.5252C18.6547 11.7741 18.804 12.023 18.8538 12.2718C18.9533 12.8193 18.2565 12.8691 17.8584 12.7695C17.0123 12.5206 16.3652 11.8239 15.768 11.1768C15.6186 11.0275 15.121 10.3805 14.8721 10.6792C14.5735 10.9778 15.1707 11.5252 15.3698 11.7243C15.9173 12.3216 16.4648 13.0681 16.7137 13.8147C16.8132 14.1631 16.863 14.6111 16.5145 14.8599C16.1662 15.1087 15.6684 14.6608 15.3698 14.5115C14.5735 13.964 13.7273 13.0184 12.7319 13.0184L12.4831 13.6156L13.1301 14.5115L14.8224 16.4028L12.8315 15.6065C12.9311 16.1042 14.1753 16.7512 13.9265 17.2986C13.7772 17.5973 13.0804 17.5973 12.7817 17.5973C11.7863 17.448 11.0398 16.7014 10.1439 16.4526C9.29778 16.2037 9.44708 16.8507 9.94483 17.2489C10.0941 17.3982 10.2434 17.4978 10.4425 17.6471C10.7411 17.8959 10.99 18.1448 11.2388 18.3937C11.637 18.7918 12.0352 19.2397 12.3836 19.6877L10.3927 19.6379V19.7872L12.284 20.6831L11.9357 22.0269C11.3881 22.0269 10.9402 21.8776 10.4425 21.6785C10.0941 21.5292 9.74568 21.2804 9.34754 21.3301C8.89957 21.3799 8.60096 21.778 8.89957 22.1763C9.34754 22.7735 10.2932 23.1218 10.8905 23.5698C11.1393 23.7689 11.4379 24.0675 11.1891 24.3662C10.6913 24.9634 9.29778 24.2169 8.65073 24.4159V24.5652C9.29778 24.9136 10.542 25.1127 10.8905 25.8095C11.1891 26.357 10.343 27.5017 9.79545 27.4519C9.29778 27.4022 8.80003 26.8547 8.45166 26.5063C7.55578 25.7597 6.56036 24.9136 5.51518 24.4159C3.72341 23.5698 1.88188 24.9136 0.488327 25.8095C0.68741 26.4068 1.38421 25.7597 1.83211 25.8593C2.42936 26.0086 2.92706 26.5561 3.32528 27.004C5.21658 29.1939 6.80927 31.6824 7.50601 34.5194C7.7051 35.266 8.00372 36.1619 7.45625 36.8089C7.30693 37.008 7.10785 37.008 6.90876 37.1573C6.80922 37.2568 6.80922 37.4061 6.95853 37.4559C7.25715 37.5555 7.7051 37.4061 8.05356 37.3563C9.04897 37.1075 10.1937 36.56 10.6416 35.6144C10.9403 35.0171 11.0398 33.8227 11.7365 33.5737C11.8859 34.2208 12.6324 35.1167 12.5329 35.7637C12.4831 36.3609 11.8361 37.008 11.4877 37.4559C11.3384 37.6053 11.0398 37.9536 11.2389 38.1527C11.4379 38.3518 11.7863 37.9039 11.9357 37.8043C12.4334 37.3066 13.5781 36.56 13.8768 37.655C14.1256 38.6504 13.2795 40.1933 12.8813 41.0892C12.7817 41.338 12.2343 42.0846 12.4334 42.3335C12.6822 42.6321 13.1799 41.8358 13.3292 41.6865C13.7772 41.1389 15.2703 39.4467 16.0667 40.044C17.0621 40.7906 16.7137 41.2882 16.3155 42.2837C16.216 42.5823 15.8178 43.2791 16.0667 43.528C16.3155 43.7768 16.6639 43.528 16.7635 43.3289C17.0123 42.8809 17.6095 41.5869 18.2566 41.8855C18.6548 42.0846 19.252 42.433 19.5008 42.8312C19.8493 43.4285 19.5507 44.6727 19.451 45.3198C19.4013 45.7179 19.0031 46.9124 19.3017 47.1613C19.6004 47.4101 19.899 46.6635 19.9488 46.4645C20.2972 45.8174 20.6954 45.1206 21.193 44.5732C21.3921 44.3741 21.641 44.0257 21.9396 44.0754C23.5323 44.3741 21.8899 45.9667 22.5369 46.7631C22.6862 46.9124 23.0346 46.9124 23.2336 46.9621L24.03 44.8718C24.4282 45.0211 25.0752 45.0708 25.3739 45.4193C25.6227 45.7179 25.6725 46.2156 25.772 46.564C25.9711 47.6092 26.0706 48.6046 25.9711 49.6498C26.1204 49.7493 26.3195 49.9484 26.4688 49.8489C26.6679 49.6996 26.7176 49.1521 26.8172 48.9032C27.066 48.1567 27.4145 47.4101 27.7628 46.7133C28.0117 46.2654 28.6089 45.7677 29.0568 46.4147C29.5048 47.0617 29.3058 48.2562 29.6044 49.0027C30.3509 48.6544 30.4007 47.1613 30.4007 46.4147L31.3464 46.564L31.8938 47.7087L32.8892 50.6452C33.4367 50.4461 33.2377 49.4507 33.2874 48.953C33.387 48.306 33.5363 46.9621 33.9842 46.4645C34.1833 46.2654 34.5814 46.2654 34.8303 46.1658C35.129 46.8626 35.2783 47.659 35.6266 48.3558C35.7759 48.6046 36.0746 48.9032 36.3732 48.7539C36.6718 48.6046 36.6718 48.2562 36.622 47.9576C36.5225 47.2608 36.3732 46.564 36.3234 45.8672C37.6672 45.7677 38.4636 46.8626 39.3097 47.7585C39.6581 48.1069 39.907 48.5548 40.4046 48.7041L39.7078 46.6635L39.3097 44.7722C39.8074 44.5732 40.8526 43.5778 41.3503 43.7271C42.0969 43.9261 42.6942 46.116 43.6896 45.5686C44.0877 45.3695 43.8886 44.9713 43.6896 44.7225C43.3909 44.2746 42.5448 43.2792 42.6443 42.7316C42.6942 42.3335 43.3909 41.8855 43.7393 41.8855C44.6352 41.8855 46.1781 42.5823 46.6758 43.2791L47.273 43.2293C47.1735 41.9851 45.332 41.4376 45.0831 40.2431C45.0334 40.1435 45.0831 39.9942 45.0831 39.8449C45.2822 39.0486 45.7302 39.3969 46.2278 39.5961C46.3771 39.6459 46.7256 39.8449 46.8251 39.6459C46.9744 39.4467 46.7256 39.1481 46.6261 38.9988C46.4269 38.6504 46.2776 38.2522 46.3274 37.8541C46.9744 38.0034 47.3726 38.4015 47.9201 38.75C48.0694 38.8495 48.3182 39.0486 48.4676 38.949C48.6169 38.8495 48.368 38.5509 48.3182 38.5011C48.0694 38.2025 47.3228 37.5554 47.4223 37.1573C47.4722 36.8587 47.9201 36.6098 48.1191 36.4107C48.7662 35.7637 49.463 35.1664 49.9607 34.4199H50.0104C51.2049 35.8135 54.9875 34.8181 54.4899 32.7276C54.1912 32.7775 53.8926 33.0263 53.594 32.877C52.2501 32.429 52.5986 30.2391 51.0556 30.2391C50.9561 28.8455 50.3589 27.4519 49.7118 26.2077C49.4132 25.6602 48.7662 25.1127 48.5174 24.5652C48.368 24.2666 48.4177 23.7689 48.4177 23.4205C49.2141 23.321 48.816 22.4749 48.5174 22.0767C48.2187 21.579 47.8703 20.9817 47.4223 20.5836C46.9247 20.0858 46.1283 19.7375 46.2278 18.8913C46.2776 18.095 47.6712 18.1945 47.9201 17.448C47.5219 17.448 47.1237 17.5475 46.6758 17.6471C45.6804 17.7964 45.4813 17.4978 45.979 16.5521C46.3771 15.7558 47.074 15.1585 47.6215 14.5115C47.8205 14.3124 48.368 13.8147 48.0694 13.516C47.8205 13.2672 47.4223 13.6654 47.2233 13.7649C46.4767 14.2626 45.6306 14.6111 44.7845 14.9097C44.5356 15.0092 43.7891 15.3078 43.6896 14.8101C43.59 14.2129 44.7348 14.0636 44.5855 13.3667C44.1375 13.4663 43.1918 14.2129 42.7439 13.8645C42.1964 13.4663 42.9928 12.4211 43.0923 11.9234C43.1918 11.4257 42.7937 11.4257 42.495 11.7243C42.3955 11.8239 42.2959 11.9234 42.2462 12.0727C42.0969 12.2718 41.9476 12.4709 41.848 12.67C40.7531 12.023 42.8435 11.2764 42.4452 10.6792C42.2959 10.48 42.0471 10.6792 41.8978 10.7787C41.6489 11.0275 40.6535 12.1723 40.4046 11.3261C40.1558 10.3805 40.6535 9.28554 40.9024 8.38965C40.9522 8.14082 41.2508 7.54354 40.9522 7.39424C40.5539 7.14538 40.3549 7.94174 40.2553 8.19059C39.9567 8.93717 39.459 9.58414 38.8618 10.0819C38.6626 10.2312 38.3143 10.5796 38.0654 10.5298C37.6672 10.4303 37.6175 9.23577 37.6672 8.8874C37.6672 8.7381 37.7668 8.43942 37.6175 8.29012C37.4184 8.14082 37.2691 8.43942 37.2691 8.58872C37.1696 9.08647 36.871 10.5298 36.1244 9.58414C35.4276 8.7381 36.4727 6.94633 35.129 6.59789L34.3824 8.98693C33.4865 8.78787 33.6856 7.49377 33.8846 6.79703L33.4865 6.64772C33.4367 6.94634 33.3372 7.1952 33.2377 7.44406C32.8892 8.48925 32.3915 8.63855 31.9933 7.49383C31.6947 6.59795 31.7943 5.6523 31.645 4.75642C31.7943 4.40802 31.7942 4.00979 31.3961 3.86047Z" fill="black"/>
<path d="M31.4956 5.90125C31.4457 7.84231 30.8485 9.33547 28.7084 9.33547L29.4549 12.4213C28.6586 11.5751 28.3599 10.3807 27.9618 9.28571C27.713 8.58889 27.4143 7.89208 27.3148 7.19534H27.265C27.3148 8.43959 27.5636 9.63408 27.3148 10.8783C27.1655 11.5751 26.8171 12.0729 26.6179 12.7199H26.5682L26.9664 9.73361C25.4235 9.83315 24.1294 10.0821 23.134 8.63866C22.935 8.34006 22.7358 7.94185 22.5865 7.59348H22.5367C22.686 8.73819 23.7312 10.0821 22.5367 11.0277C22.3377 11.177 22.1386 11.2765 21.9395 11.3263L23.0345 12.9688L23.6815 13.8149C21.9395 12.6701 20.9441 10.6793 20.0482 8.83773H19.9985C20.1975 10.3309 21.0934 11.6249 21.3423 13.1181C21.4418 13.6157 21.6409 14.3623 21.1432 14.7605L20.5957 12.1724C19.7993 12.5706 19.2021 13.8149 18.1569 13.6655C17.709 13.6157 17.3606 13.2176 16.9126 13.0683C17.1118 13.7153 17.6592 14.2628 17.3606 14.9596C17.2611 15.2084 17.0121 15.4075 16.8628 15.6563L19.0528 16.4527C18.6546 16.9504 17.8085 16.5522 17.3606 16.3532C16.4647 15.9053 15.6684 15.3577 14.8222 14.8103C14.3743 14.4619 13.8268 14.014 13.2296 13.9144C13.578 14.6609 14.4739 15.308 15.0711 15.8555C15.5688 16.3034 15.9172 16.8509 16.3652 17.3486C16.7633 17.8463 17.3108 18.4435 17.1118 19.1403C16.3652 18.3938 15.7679 17.8961 14.6729 18.1449C14.2748 18.2445 13.9264 18.4933 13.5282 18.4435C12.7816 18.4435 12.0351 18.0454 11.3383 17.7468C11.7365 18.5928 12.7816 19.0906 13.0305 20.086C13.1798 20.8326 12.6821 21.7285 12.5826 22.475L14.9218 22.8234V22.9727C12.9309 23.5202 11.5374 22.4252 9.64609 22.0768V22.1266C10.8903 22.7239 12.3337 23.7193 13.2296 24.7645C13.578 25.1626 13.9761 25.6106 13.9761 26.1083C13.6278 25.8097 12.9309 25.0133 12.3835 25.1128C11.9853 25.1626 11.836 25.6106 11.7862 25.959C11.6369 26.9046 11.6369 27.9 11.6369 28.8457C11.2387 28.4973 11.2886 28.0493 11.2886 27.5517C10.7908 27.8503 10.2931 28.2484 9.64609 28.1489C8.99904 27.9996 8.40184 27.253 7.95386 26.8051C7.10774 25.959 6.11233 25.1128 4.86807 24.9138C4.22106 24.8142 2.27996 24.9138 3.12608 25.9092C3.22562 26.0087 3.32516 26.1083 3.4247 26.158C3.87264 26.4069 4.86802 26.1083 5.41554 26.1083V26.158L3.7233 26.5065C4.4201 27.9498 5.91321 26.6558 6.70955 27.5517C6.16208 27.4024 5.16663 27.4024 4.61919 27.5517L5.56484 28.7959L6.01277 29.3932L7.60547 29.5923V29.642H6.16215C6.26169 30.3886 7.1078 30.1895 7.65531 30.1397V30.1895L6.51059 30.3886C6.70967 30.7867 7.15762 32.0808 7.55578 32.2799C7.90418 32.4292 8.35205 32.1306 8.60096 31.9812C8.20275 32.678 7.55578 32.3794 7.90415 33.3251L8.9991 32.7776C8.75026 33.0763 8.35205 33.2753 8.20275 33.5739C8.00369 33.9721 8.35205 34.6191 8.45166 35.0173L9.54661 34.221L8.50143 35.3657L8.60096 36.6099C9.49684 36.2118 10.2433 35.5648 10.6416 34.6191C10.7909 34.221 10.8406 33.773 10.9899 33.4246C11.1392 33.1758 11.5374 33.2256 11.637 32.9269C11.7863 32.3794 11.4379 31.9315 11.7365 31.384H11.7863L11.9853 32.479C12.6822 32.2799 13.0803 31.185 13.2794 30.5877H13.4287C13.6278 31.4836 12.8315 32.031 12.5329 32.7776C13.0305 32.8771 13.8766 33.126 13.8269 33.7232L12.1346 33.126L13.4287 36.0127H13.4785C14.1255 35.0671 14.7228 33.5739 15.5689 32.8771C15.8675 33.8725 14.8223 34.7186 14.4242 35.515C15.0214 35.3657 16.0665 34.5693 16.6141 34.9177C15.8675 35.2164 15.1707 35.6643 14.6232 36.2616C14.4242 36.4606 14.1255 36.809 14.1255 37.0579C14.1255 37.3565 14.4739 37.7049 14.673 37.9538C15.2703 38.7998 15.967 39.6957 16.9127 40.1935C17.2611 39.4967 17.6095 38.7998 17.8085 38.0036C17.9081 37.6551 17.9081 37.1575 18.2068 36.9584C18.5551 38.8496 17.2113 40.9401 16.7634 42.682C18.0575 41.587 18.804 39.8451 20.4464 39.1483C20.3967 40.0442 19.0031 40.4921 18.9035 41.4875C18.8537 41.8359 19.3017 41.9852 19.5505 42.1843C20.1976 42.6322 20.7948 43.13 21.5414 43.4783C21.7902 43.5779 22.0889 43.8268 22.3377 43.5779C22.7856 43.0802 22.8355 42.1843 22.7856 41.5373C22.7359 41.1391 22.5866 40.5418 22.8852 40.2432L23.3829 43.0304L23.1341 46.3153H23.1838C23.8309 44.6729 24.3783 42.9309 25.6226 41.6866C25.6226 42.5327 24.6769 43.7272 24.3286 44.5733C25.6226 45.1706 27.1157 45.5189 28.5093 45.8176C28.6089 44.9715 28.6089 44.1254 28.36 43.2793C28.2605 42.8811 27.9121 42.3834 28.1609 42.035C29.007 43.8765 29.9527 45.7181 29.9527 47.7587H30.0025C30.0025 46.5144 30.2015 45.2203 30.4504 44.0258C30.5002 43.8268 30.55 42.8811 30.8983 42.8811C31.2467 42.8811 31.0974 43.4286 31.0974 43.6276C30.9481 44.4737 30.749 45.3199 30.6495 46.166L33.586 46.1162L34.6312 45.9171L34.5814 44.872L33.1878 42.4331C33.7353 42.3336 34.233 43.2793 34.4819 43.6774C35.3778 45.1208 35.975 47.0121 36.3732 48.6546H36.4229C36.2238 46.4148 35.6764 44.3244 35.9252 42.035C36.5722 42.2838 36.2238 43.9761 36.3234 44.6231C36.3732 44.8222 36.3234 45.3696 36.5722 45.4692C36.8211 45.5687 37.2192 45.3696 37.4184 45.2701C38.2147 45.0213 38.9612 44.6231 39.7576 44.2747C40.0562 44.1254 40.4544 43.9761 40.5041 43.6276C40.5539 42.3336 39.4092 41.9355 38.6128 41.2387C39.3097 41.1889 39.8073 41.6368 40.3051 42.035C41.0516 42.6322 41.8479 43.329 42.4452 44.0756C42.7936 44.5235 43.0923 45.071 43.4904 45.4194C43.2416 44.6729 42.694 43.9761 42.3457 43.329C41.6489 41.9852 41.1512 40.5418 40.952 39.0488H41.0018L42.2959 42.4829C42.9926 42.2341 43.5899 41.388 44.0379 40.8405C44.237 40.5916 44.4858 40.3428 44.4858 40.0442C45.6305 39.646 44.1872 38.7003 43.9383 38.3519C44.7346 38.2524 45.4315 38.999 46.178 39.1483C45.8296 38.4515 45.2822 37.5058 45.4315 36.7095H45.5808L46.0785 38.0533C47.273 36.9584 48.6665 35.8136 49.5624 34.42C50.8067 32.479 50.8068 30.0402 49.9109 27.9498C49.662 27.4024 49.4629 26.5562 49.015 26.1083C48.4177 25.4613 47.8703 26.5562 47.8205 27.0539C48.1191 27.1037 48.3679 27.2032 48.6168 27.3526C49.5624 27.9996 49.6122 29.0945 49.2141 30.0402C49.0647 30.4384 48.7662 30.8365 48.7163 31.2845C48.6665 31.8319 48.9652 32.3794 49.0648 32.9269C49.2141 33.8228 48.7661 34.7684 48.1191 35.3657C47.5218 35.9131 46.6757 36.2118 45.8794 36.1123C45.4812 36.0625 45.0831 35.7141 44.7346 35.8634C44.1374 36.0625 44.0379 37.0082 43.6397 37.4561C43.4904 36.4109 44.237 35.8634 44.436 34.9177C44.5356 34.4698 44.1872 33.6735 44.0379 33.2256C43.9383 32.8771 43.7392 31.8817 43.1918 32.0808C42.8433 32.2301 42.6443 32.6283 42.4452 32.8771C41.9475 33.5739 41.4996 34.3703 40.6534 34.5693C40.952 33.773 41.8479 33.0763 42.2959 32.3297C43.2416 30.8365 44.2867 28.348 42.9926 26.7553C42.5945 26.2576 41.9972 25.9092 41.4498 25.6604C40.7032 25.3119 39.8571 25.2124 39.0607 24.9635V24.8142L40.0064 24.6649L39.8073 23.1718L39.2101 23.3708C39.2101 20.8823 41.6986 19.4887 43.4406 18.1947L43.142 19.0906L43.9881 20.3846L45.6803 23.0225L44.9835 22.9727C45.1329 23.9681 45.3319 24.864 44.9835 25.8594C44.7844 26.5065 44.237 27.0041 44.0379 27.6512C43.9383 27.9498 44.0877 28.2982 44.0877 28.5968C44.0877 29.0447 43.9383 29.443 43.8388 29.8909C45.0831 29.2937 45.2822 27.5019 46.5762 27.1037C46.4766 26.5065 46.2278 25.959 46.178 25.3119C46.0785 23.9681 46.3273 22.6243 46.1283 21.2805C45.8794 19.7874 45.2822 18.4933 44.7346 17.0997L45.3319 17.3486C45.4812 16.4029 46.2278 15.9053 46.7752 15.1587C45.979 15.4573 44.7844 16.4029 43.8885 15.9053C43.2913 15.5568 43.0923 14.7605 42.4452 14.4619L41.6489 17.7468H41.5991C41.2507 16.2536 41.9972 14.8103 42.3457 13.3669C41.3005 14.213 40.6037 15.2582 39.1604 15.4573L41.1512 14.014L41.5991 13.3669L41.0018 12.8692L39.5087 11.7742L40.2055 11.9236L40.4544 9.73361H40.4046C40.2553 9.98252 40.0562 10.2314 39.8571 10.4802C39.5585 10.7788 39.2101 11.2765 38.8119 11.4258C38.0156 11.6747 36.9206 10.7788 36.174 10.5797V13.7153C35.4773 13.6157 35.5768 12.919 35.5768 12.272C35.5768 10.9281 35.5271 9.58431 35.5768 8.24052H35.5271C35.3279 9.73361 34.8302 11.9236 33.3371 12.6701C33.7851 11.9734 34.1832 11.4258 34.3823 10.6295C34.4321 10.3807 34.6312 9.98252 34.3823 9.83315C33.6855 9.33547 32.6403 9.73361 32.0928 8.93726C31.4458 7.74278 31.8439 6.74736 31.4956 5.90125Z" fill="url(#paint0_radial_1_9642)"/>
<path d="M30.8997 10.63L29.8047 15.5573C30.6508 15.0597 30.8002 13.1684 30.8997 12.2725H30.9495C31.0988 13.0688 31.1485 13.8652 31.4969 14.6117C31.6463 14.9103 31.7458 15.3085 32.1439 15.3085L31.2481 12.2227L30.8997 10.63Z" fill="black"/>
<path d="M24.1797 11.4757C24.1797 13.2176 25.0756 14.8103 24.7272 16.6021C25.0756 16.403 25.0756 15.955 25.0756 15.6067C25.0756 14.7606 24.9263 13.9642 24.9263 13.1679H24.9761C25.225 14.014 25.872 15.6564 26.8176 15.756C26.7181 15.3081 26.3199 14.9596 26.1209 14.6113C25.5734 13.7154 25.0756 12.0231 24.1797 11.4757Z" fill="black"/>
<path d="M38.1661 12.2716C37.4196 13.4661 36.5237 15.1086 35.379 15.9547V16.0044C36.2251 15.8551 37.1707 14.7601 37.4196 13.9638H37.4694C37.4694 15.1583 36.9219 16.4523 37.4196 17.6468H37.4694C37.8178 16.4026 37.6187 14.9593 37.9671 13.6652C38.0666 13.267 38.415 12.62 38.1661 12.2716Z" fill="black"/>
<path d="M33.6856 14.9601C33.2874 15.856 33.0883 16.7021 32.2422 17.3491V17.4984C32.8394 17.6477 33.2377 16.9011 33.387 16.4035H33.4367C33.4865 16.8514 33.5363 17.797 34.034 17.9961L33.6856 16.4035V14.9601Z" fill="black"/>
<path d="M19.0528 15.0597C19.2021 16.7518 21.4418 17.8966 21.1431 19.6883C21.4915 19.4893 21.392 19.0911 21.2925 18.7427C21.0436 18.0459 20.5957 17.3989 20.3468 16.7021C20.9938 17.2994 21.9893 17.9962 22.8851 17.598L21.4418 17.0008L19.0528 15.0597Z" fill="black"/>
<path d="M28.5096 15.6066C28.3105 16.3033 27.7133 17.5974 27.9621 18.2444H28.0616L28.5594 16.602H28.6092C28.7585 17.1992 28.9575 18.1448 29.7041 18.2444L28.6092 15.6066H28.5096Z" fill="black"/>
<path d="M23.9317 17.299L24.2801 20.1857H24.4294L24.3797 18.1451C24.8276 18.4437 25.4248 19.24 26.0221 18.9414C25.7732 18.6926 25.4746 18.6428 25.2258 18.4437C24.728 18.0953 24.4792 17.3487 23.9317 17.299Z" fill="black"/>
<path d="M38.9115 17.6964C38.2148 18.443 37.5677 18.891 36.5723 19.1896V19.3389C37.1696 19.4882 37.717 19.1896 38.2148 18.8412C38.1152 19.2393 37.6175 20.2845 38.0156 20.5334L38.6627 18.5425L38.9115 17.6964Z" fill="black"/>
<path d="M39.6582 22.1266C41.2011 21.7284 42.9431 21.5293 44.486 21.8778C44.2371 21.0814 43.6399 20.3846 43.0924 19.7874C42.8933 19.5883 42.6942 19.1901 42.3458 19.1404C41.9975 19.0906 41.649 19.4887 41.4002 19.6878C40.7034 20.2353 40.0066 21.2307 39.6582 22.1266Z" fill="url(#paint1_radial_1_9642)"/>
<path d="M27.2654 19.2892L26.8672 21.3796C27.2156 21.1307 27.2654 20.2846 27.3649 19.8864L27.9622 20.5832C27.8627 20.1353 27.6138 19.5878 27.2654 19.2892Z" fill="black"/>
<path d="M33.9352 19.4874L32.6412 20.7814L33.8854 19.8856L34.0846 21.1299C34.3334 20.7814 34.1841 19.786 33.9352 19.4874ZM19.502 19.6865C20.0992 20.3335 20.5472 21.1299 20.8956 21.8266C21.0946 22.2248 21.0449 22.6727 21.4431 22.9216C21.3932 22.1253 21.0449 21.528 20.7463 20.8312C21.2439 21.1299 21.891 21.528 22.4385 21.3787V21.2294C21.6421 20.881 21.0449 20.5824 20.3978 20.0349C20.149 19.8358 19.8504 19.5372 19.502 19.6865Z" fill="black"/>
<path d="M14.9219 20.2855C14.9717 20.8828 15.4694 21.0819 15.8676 21.3805C16.4649 21.8285 16.9625 22.2764 17.4105 22.8736C17.7091 23.2718 17.8584 23.9188 18.2566 24.1677C18.157 23.1722 17.6096 21.9778 16.6142 21.5796V21.5298C17.6096 21.7289 18.5552 22.0773 19.5506 21.6792V21.5298L18.4059 21.48L14.9219 20.2855Z" fill="black"/>
<path d="M46.627 20.4847L46.7763 22.1272L48.2695 22.3263C48.0206 21.6792 47.3238 20.7833 46.627 20.4847Z" fill="url(#paint2_radial_1_9642)"/>
<path d="M30.1031 20.5831L29.5059 21.7278L30.2026 20.9813L30.6009 21.6781L30.1031 20.5831Z" fill="black"/>
<path d="M36.6722 22.2257L35.5274 23.1215L36.5726 22.5741L36.4233 23.3704C36.6722 23.1714 36.8215 22.5243 36.6722 22.2257Z" fill="black"/>
<path d="M43.4917 26.3089C43.9894 26.0601 44.2382 25.4628 44.3876 24.9652C44.5369 24.3181 44.7858 22.5761 43.9396 22.2775C43.4917 22.0784 42.7452 22.3273 42.2474 22.3273C41.7995 22.3273 40.8539 22.2775 40.5054 22.5761C40.2068 22.8748 40.4059 24.0195 40.6548 24.3181C40.9036 24.6168 41.4511 24.7163 41.8493 24.8656C42.5461 25.1642 43.1433 25.6122 43.4917 26.3089Z" fill="white"/>
<path d="M46.627 22.6251V23.2223C47.8713 22.7744 48.1201 24.5662 46.8261 24.5164L47.0749 26.109C47.9708 25.6611 48.4188 23.6205 47.6722 22.874C47.4731 22.6251 46.9256 22.6251 46.627 22.6251Z" fill="white"/>
<path d="M43.1426 22.8741C42.9932 23.0234 42.7942 23.123 42.6946 23.322C41.9978 24.5664 44.6855 24.5664 43.9389 23.2723C43.8393 23.123 43.69 23.0234 43.5407 22.9239L43.1426 23.123V22.8741Z" fill="black"/>
<path d="M46.8243 23.0724L47.0242 23.2223V23.1723L46.8243 23.0724Z" fill="#020202"/>
<path d="M28.8078 23.1722C28.8078 23.5207 28.7581 23.8691 29.0567 24.0681V23.3714L29.853 23.6202L28.8078 23.1722Z" fill="black"/>
<path d="M46.7754 23.1722L46.9256 23.3225V23.1722H46.7754Z" fill="#010101"/>
<path d="M32.9903 24.1175L33.3386 23.5202L33.7368 23.7691C33.4382 22.9727 32.9903 23.57 32.9903 24.1175Z" fill="black"/>
<path d="M24.7266 23.3717C24.8262 23.8197 25.0253 24.168 25.4234 24.4666L25.0253 23.5707L25.8216 23.6205C25.6225 23.2721 25.1248 23.3717 24.7266 23.3717Z" fill="black"/>
<path d="M21.2442 23.7688L22.1898 24.9135L21.6423 23.9678L22.4387 23.8185L22.3889 23.5697L21.2442 23.7688Z" fill="black"/>
<path d="M46.2774 23.5697V23.7696H46.3274L46.2774 23.5697Z" fill="white"/>
<path d="M46.2774 23.8693V24.0692H46.3274L46.2774 23.8693Z" fill="white"/>
<path d="M14.375 25.7096V25.8589L16.3659 26.5557C16.3161 26.0579 15.6691 25.8589 15.2212 25.8091L16.5649 24.5648C15.8184 24.4653 14.9723 25.3114 14.375 25.7096Z" fill="black"/>
<path d="M17.211 25.4108V25.5601L18.7041 26.1076L19.6 26.7049C19.5004 25.9583 18.7539 25.8587 18.2562 25.4605C18.9032 25.361 19.7493 25.3112 20.0479 24.6642L17.211 25.4108Z" fill="black"/>
<path d="M26.8672 25.909L27.0662 25.4113C26.7676 25.461 26.5187 25.7099 26.8672 25.909Z" fill="black"/>
<path d="M29.3057 25.8094L29.2559 26.3072C29.455 26.1579 29.5048 26.0583 29.455 25.8094H29.3057Z" fill="black"/>
<path d="M32.1927 26.3064L32.3918 25.8087C32.0931 25.9082 31.8941 26.1074 32.1927 26.3064Z" fill="black"/>
<path d="M34.2325 26.706V26.9548L34.9292 26.4572L34.2325 26.706Z" fill="black"/>
<path d="M37.4688 26.5548V27.3512C37.7675 27.1521 37.7675 26.8036 37.4688 26.5548Z" fill="black"/>
<path d="M24.0313 27.9497L24.8276 28.1488L24.3797 27.7008L24.6286 27.0538C24.3299 27.2031 24.1308 27.6013 24.0313 27.9497Z" fill="black"/>
<path d="M43.8399 30.0407C45.5321 30.2896 46.3285 29.4932 47.5727 28.4978C47.3737 28.9955 46.4778 29.5927 46.5275 30.0905C46.5773 30.5882 47.3239 30.6379 47.6723 30.4886C48.3193 30.2398 48.7174 29.543 48.8667 28.8462C49.1654 27.5024 47.3737 26.3577 46.2289 27.2535C45.2833 28.0499 44.8353 29.2941 43.8399 30.0407Z" fill="url(#paint3_radial_1_9642)"/>
<path d="M11.6873 28.5472C11.787 29.0449 12.2846 28.796 12.633 28.7462C13.1307 28.6965 14.1262 28.8956 14.4248 29.3435L14.9225 29.2937C14.823 28.4974 13.6783 28.5472 13.081 28.4974C13.5289 28.0495 14.1759 27.9001 14.3252 27.2034L11.6873 28.5472Z" fill="black"/>
<path d="M27.4654 27.7511L26.7188 28.6967L27.6644 29.0451L26.9677 28.6469C27.117 28.3483 27.6644 28.0497 27.4654 27.7511Z" fill="black"/>
<path d="M21.5425 27.9503L20.7461 28.6968C21.0447 28.7964 21.7913 29.2443 22.0402 28.896L21.0945 28.5475L21.5425 27.9503ZM39.2109 27.9503L40.1566 28.6968V28.8462L39.2607 29.3439C39.7087 29.2941 40.1068 29.1448 40.5049 28.8462C40.2063 28.3982 39.7087 28.0499 39.2109 27.9503Z" fill="black"/>
<path d="M17.3115 28.1984C16.9133 29.144 16.2663 29.8906 15.5197 30.5873C15.1216 30.9855 14.4745 31.3837 14.2754 31.9312L17.2617 31.2841L18.8544 30.9855C17.9087 30.3385 16.2663 31.0851 15.3704 31.4832C15.9677 30.239 17.2119 29.7413 17.4608 28.2979L17.411 28.2481L17.3115 28.1984Z" fill="black"/>
<path d="M29.8047 28.8952L30.2029 28.945V28.2482C29.9043 28.3975 29.8545 28.5965 29.8047 28.8952Z" fill="black"/>
<path d="M32.9903 28.7474L33.04 29.494C33.3386 29.3447 33.5875 29.0959 33.6373 28.7474L33.1396 29.0959L32.9903 28.7474Z" fill="black"/>
<path d="M23.3837 30.1903L23.533 29.6926C23.2344 29.7922 23.0353 29.9912 23.3837 30.1903Z" fill="black"/>
<path d="M35.5769 30.1388L35.5272 31.0844L34.9299 30.6863C34.9797 31.0844 35.2783 31.2835 35.6765 31.383L35.7263 30.1388H35.5769Z" fill="black"/>
<path d="M18.754 32.2303C19.2019 32.2303 20.7946 32.28 20.9936 31.9813L19.5005 31.7823L20.2968 30.1896C19.7991 30.339 18.953 31.7823 18.754 32.2303ZM24.2785 38.153C24.7762 37.8543 25.473 36.9584 25.7219 36.4608C25.1744 36.6101 24.9255 37.1576 24.5771 37.5557L24.3781 36.1124C25.9707 35.963 26.6675 34.2211 27.6132 33.1759C28.1607 32.5289 28.9073 32.28 29.6538 31.8818C29.2059 31.3841 28.6086 31.9316 28.2104 32.2303C27.1155 33.0763 26.5182 34.0718 25.5726 35.0174L26.1201 33.574H26.0703C25.7716 34.2709 25.4233 35.0671 24.7265 35.4156L24.9753 34.4699H24.9255C24.6269 35.1667 24.3283 35.5151 23.5817 35.5151L24.2785 33.9224H24.2288L23.3329 35.4156L23.084 35.3658L23.7808 34.0717H23.731C23.3827 34.6192 23.0342 35.4156 22.2877 35.2165L22.8849 34.0717C22.5366 34.3206 22.3872 34.9676 21.989 35.117C21.79 35.1667 21.4416 35.0672 21.5411 34.8183C21.6407 34.5197 22.1383 34.1713 22.3872 33.9224C23.084 33.0265 23.6315 31.5334 24.6767 30.9362C25.5228 30.4883 26.8168 31.0357 27.7625 31.0357C28.31 31.0357 28.9073 30.8366 29.0566 30.2892C28.6086 30.2394 28.2104 30.538 27.7625 30.538C26.6178 30.538 24.7265 29.9905 23.731 30.7371C22.8352 31.4339 22.7854 32.3796 22.2379 33.2754C21.9393 33.7233 21.4914 34.0219 21.0932 34.3206C20.9439 34.4202 20.695 34.6192 20.7448 34.8183C20.7946 35.117 21.2923 35.2663 21.4914 35.3658C21.989 35.6146 22.5863 35.7639 23.1338 35.9132C23.4324 35.963 23.8803 35.963 24.1292 36.1622C24.3283 36.5105 24.179 37.6552 24.2785 38.153Z" fill="black"/>
<path d="M11.4873 30.5372L11.4375 30.9354L11.6864 30.5372H11.4873Z" fill="black"/>
<path d="M46.9252 32.5292C46.7759 32.0813 46.8257 31.484 46.5271 31.0858C46.1288 30.5383 45.233 30.5881 44.6855 30.5881C44.4865 30.5881 44.138 30.5881 43.9887 30.7872C43.8394 31.0361 44.138 31.5835 44.1878 31.8323C44.4367 32.8775 44.6855 34.2712 45.5814 34.968C46.1786 35.4159 47.3234 35.1173 47.8211 34.6195C48.6174 33.8729 48.8165 32.0315 48.0201 31.2351C47.0247 30.19 47.0247 32.0315 46.9252 32.5292Z" fill="url(#paint4_radial_1_9642)"/>
<path d="M51.1558 31.0355L50.8075 32.7278L50.5586 33.6236L51.0563 33.972L50.907 33.3747H50.9568C51.2554 34.1213 51.6038 34.2706 52.4002 34.2706L51.9024 33.2254C52.201 33.5738 52.3503 34.1213 52.8481 34.1711L52.3503 33.2752C52.7983 33.7729 52.9974 34.0715 53.6444 33.7729V33.6236C52.5495 33.0761 52.4002 31.2346 51.1558 31.0355Z" fill="url(#paint5_radial_1_9642)"/>
<path d="M40.2056 31.5332L40.4046 31.0355C40.1558 31.1848 40.0065 31.3341 40.2056 31.5332Z" fill="black"/>
<path d="M30.9981 31.6329L31.7447 32.4293L32.093 31.6329L31.7447 32.1804L30.9981 31.6329ZM37.9163 31.6329L37.8666 32.6781L37.1697 32.28C37.12 32.7279 37.8168 33.2256 38.2149 33.4247L38.0656 31.6329H37.9163Z" fill="black"/>
<path d="M19.4016 32.7784C19.2025 33.8236 18.4559 34.7195 17.809 35.5159C17.5104 35.9141 17.0126 36.2624 16.8633 36.7601C18.008 36.4117 19.2523 35.267 20.4966 35.4163C20.1979 34.819 18.7049 35.6652 18.1573 35.7647C18.6053 35.1177 19.2025 34.5204 19.5012 33.7739C19.6505 33.4255 19.7003 33.0274 19.4016 32.7784Z" fill="black"/>
<path d="M34.6312 34.4202C34.3326 34.1215 34.0339 33.7234 33.586 33.8229L34.8801 35.4156L35.2285 33.4248C34.7308 33.4746 34.7308 34.022 34.6312 34.4202Z" fill="black"/>
<path d="M28.2118 34.071L28.162 33.7226H27.9629L28.0127 34.6185C28.4108 34.5687 28.8091 33.8221 28.9086 33.4738L28.2118 34.071Z" fill="black"/>
<path d="M30.7504 34.5695L30.4019 35.4653H30.3522L29.8047 34.7188L30.3024 36.3114H30.3522C30.5015 35.8137 31.1485 34.9676 30.7504 34.5695Z" fill="black"/>
<path d="M38.1169 35.0177L38.515 37.3071C38.0671 36.909 36.7233 35.167 36.1758 35.814C37.4201 36.2122 37.9675 37.7053 39.0625 38.3523L38.7141 37.0583L38.316 35.0177H38.1169Z" fill="black"/>
<path d="M41.6991 35.5149C41.3507 36.361 42.1968 37.2569 42.4954 38.0532C41.5996 37.6053 40.8032 36.8587 39.758 36.8089V37.0578C41.301 37.2071 42.0972 38.75 43.2918 39.4468C43.2918 38.1527 42.1968 36.7094 41.7986 35.4651L41.6991 35.5149Z" fill="black"/>
<path d="M27.863 36.5599L27.3653 36.6097C27.5146 37.0079 27.8133 37.3065 27.9626 37.7047C28.1119 38.1526 28.0123 38.7499 28.4602 38.9987C28.6593 38.501 29.2068 37.7544 29.0575 37.207C28.6593 37.4061 28.51 37.8043 28.4602 38.2522H28.4105L27.863 36.5599Z" fill="black"/>
<path d="M21.5417 36.6106C21.5417 37.9545 21.3426 39.1987 20.9942 40.4928C21.4919 40.4928 21.7407 39.9951 21.9896 39.6965C22.4873 38.9996 22.985 38.2531 23.8311 37.9047V37.8549C23.0348 37.7554 21.9896 38.9499 21.7407 39.6467H21.5914C21.8403 38.701 22.0393 37.5562 21.6412 36.6604H21.5417V36.6106Z" fill="black"/>
<path d="M33.1396 38.1026L31.5469 37.0077C31.6465 37.3063 31.8456 37.3561 32.0447 37.5552C32.4428 37.9533 32.7912 38.7994 33.3885 38.899L33.5378 36.6593C32.9903 36.9081 33.1396 37.605 33.1396 38.1026Z" fill="black"/>
<path d="M37.0202 37.9542C36.5225 38.8003 37.2193 40.5423 37.3686 41.4879H37.3188C36.9206 40.6916 36.2239 40.0446 35.6266 39.3975C35.527 39.298 35.1289 38.7007 34.9795 38.9496C34.8302 39.1985 35.6266 39.7958 35.7759 39.9948C36.3234 40.6418 36.8211 41.3884 37.2193 42.0852C37.4681 42.5331 37.6672 43.0806 38.1152 43.3294C37.7667 41.5874 37.2193 39.7459 37.2193 37.9542H37.0202Z" fill="black"/>
<path d="M14.2759 38.6505L13.5293 40.7907L15.122 39.6957C15.0723 39.1483 14.8234 38.7998 14.2759 38.6505Z" fill="url(#paint6_radial_1_9642)"/>
<path d="M25.6231 39.1981C25.9217 40.1438 26.2204 40.9401 26.4194 41.8858C26.519 42.3337 26.4692 42.931 26.8176 43.2296C27.2158 42.483 27.3153 41.6369 27.7135 40.8903C27.9125 40.4424 28.261 40.094 28.1614 39.5963C27.5144 39.8949 27.1163 41.388 26.9171 42.0351C26.519 41.2387 26.6185 39.646 25.6231 39.1981Z" fill="black"/>
<path d="M30.252 39.8947C31.0483 41.4375 31.5958 42.8809 32.0438 44.5234C32.5414 44.2745 32.4419 43.7768 32.4419 43.279C32.4419 42.1343 32.84 41.0394 32.7903 39.9444C32.4917 40.044 32.3921 40.3923 32.3424 40.691C32.1931 41.4375 32.1931 42.1841 32.0438 42.9307C31.6456 42.0846 31.3967 40.044 30.252 39.8947Z" fill="black"/>
<path d="M44.6364 40.4425L44.1387 41.2389L45.6318 41.9356L44.6364 40.4425Z" fill="url(#paint7_radial_1_9642)"/>
<path d="M20.0479 43.4777L19.8985 45.568C20.4958 44.9707 21.4912 43.627 20.0479 43.4777Z" fill="url(#paint8_radial_1_9642)"/>
<path d="M38.0157 45.5694C38.2645 46.1169 38.8617 46.7141 39.3595 47.0626L38.7622 45.1713L38.0157 45.5694Z" fill="url(#paint9_radial_1_9642)"/>
<path d="M26.4198 48.4548L27.0669 46.2649L26.2705 46.1156L26.2207 46.7128L26.4198 48.4548Z" fill="url(#paint10_radial_1_9642)"/>
<path d="M32.0938 46.7145L32.8404 48.9044C32.9897 48.5062 33.5372 47.0131 33.139 46.7145C32.8901 46.4159 32.3925 46.6149 32.0938 46.7145Z" fill="url(#paint11_radial_1_9642)"/>
<path d="M47.0253 30.5877C46.7764 30.538 46.5275 30.3389 46.5275 30.1398C46.5275 29.9407 46.6768 29.7416 47.1746 29.1444C47.5727 28.6467 47.523 28.6467 46.7764 29.244C45.9303 29.8909 45.3331 30.1398 44.5367 30.1398H43.8399C43.8399 30.0901 43.9394 29.9905 44.0888 29.8909C44.2381 29.7914 44.686 29.1942 45.134 28.6467C45.9303 27.6015 46.3285 27.2531 46.8261 27.1038C47.6225 26.8549 48.6677 27.502 48.9166 28.3481C49.1157 29.1444 48.4188 30.4384 47.6723 30.6375C47.523 30.6873 47.3737 30.737 47.3239 30.6873C47.2244 30.6375 47.1248 30.5877 47.0253 30.5877Z" fill="#FEF666"/>
<path d="M45.929 35.1663C45.6802 35.1166 45.3317 34.818 45.0829 34.4695C44.7843 34.0714 44.5851 33.5239 44.2368 32.1801C44.0875 31.5828 43.9382 31.0851 43.9382 30.9856C43.8386 30.6372 44.6349 30.4381 45.5805 30.5874C46.3271 30.7368 46.6258 30.9856 46.7751 31.6824C46.8249 31.9312 46.8746 32.1801 46.8746 32.2298C46.8746 32.2796 46.9244 32.0805 47.0239 31.7819C47.0737 31.4335 47.1732 31.1349 47.3225 31.0354L47.4718 30.8363L47.7705 31.0354C48.2184 31.334 48.4673 31.9312 48.4673 32.7276C48.4673 33.7728 48.0194 34.6189 47.2728 34.9673C46.9244 35.1166 46.2276 35.2161 45.929 35.1663Z" fill="#FEF67A"/>
</g>
</g>
<defs>
<radialGradient id="paint0_radial_1_9642" cx="0" cy="0" r="1" gradientUnits="userSpaceOnUse" gradientTransform="translate(29.4523 27.0223) rotate(0.12618) scale(21.2325 22.2413)">
<stop stop-color="#FFF68E"/>
<stop offset="0.731" stop-color="#EED26A"/>
<stop offset="1" stop-color="#D6AA4A"/>
</radialGradient>
<radialGradient id="paint1_radial_1_9642" cx="0" cy="0" r="1" gradientUnits="userSpaceOnUse" gradientTransform="translate(42.1548 20.7425) scale(0.830953 0.519409)">
<stop stop-color="#FFF68E"/>
<stop offset="0.5" stop-color="#FAEA82"/>
<stop offset="1" stop-color="#D6AA4A"/>
</radialGradient>
<radialGradient id="paint2_radial_1_9642" cx="0" cy="0" r="1" gradientUnits="userSpaceOnUse" gradientTransform="translate(47.6809 21.5356) scale(0.28097 0.31601)">
<stop stop-color="#FFF68E"/>
<stop offset="0.5" stop-color="#FAEA82"/>
<stop offset="1" stop-color="#D6AA4A"/>
</radialGradient>
<radialGradient id="paint3_radial_1_9642" cx="0" cy="0" r="1" gradientUnits="userSpaceOnUse" gradientTransform="translate(46.3493 28.8037) scale(0.865257 0.618636)">
<stop stop-color="#FFF68E"/>
<stop offset="0.5" stop-color="#FAEA82"/>
<stop offset="1" stop-color="#D6AA4A"/>
</radialGradient>
<radialGradient id="paint4_radial_1_9642" cx="0" cy="0" r="1" gradientUnits="userSpaceOnUse" gradientTransform="translate(46.1168 32.888) scale(0.78036 0.784113)">
<stop stop-color="#FFF68E"/>
<stop offset="0.5" stop-color="#FAEA82"/>
<stop offset="1" stop-color="#D6AA4A"/>
</radialGradient>
<radialGradient id="paint5_radial_1_9642" cx="0" cy="0" r="1" gradientUnits="userSpaceOnUse" gradientTransform="translate(45.9352 35.8861) scale(7.64146 7.78408)">
<stop stop-color="#FFF68E"/>
<stop offset="0.5" stop-color="#FAEA82"/>
<stop offset="1" stop-color="#D6AA4A"/>
</radialGradient>
<radialGradient id="paint6_radial_1_9642" cx="0" cy="0" r="1" gradientUnits="userSpaceOnUse" gradientTransform="translate(14.3795 39.7134) scale(0.269178 0.362804)">
<stop stop-color="#FFF68E"/>
<stop offset="0.5" stop-color="#FAEA82"/>
<stop offset="1" stop-color="#D6AA4A"/>
</radialGradient>
<radialGradient id="paint7_radial_1_9642" cx="0" cy="0" r="1" gradientUnits="userSpaceOnUse" gradientTransform="translate(44.9944 41.2397) scale(0.257498)">
<stop stop-color="#FFF68E"/>
<stop offset="0.5" stop-color="#FAEA82"/>
<stop offset="1" stop-color="#D6AA4A"/>
</radialGradient>
<radialGradient id="paint8_radial_1_9642" cx="0" cy="0" r="1" gradientUnits="userSpaceOnUse" gradientTransform="translate(20.4239 44.5518) scale(0.153452 0.362782)">
<stop stop-color="#FFF68E"/>
<stop offset="0.5" stop-color="#FAEA82"/>
<stop offset="1" stop-color="#D6AA4A"/>
</radialGradient>
<radialGradient id="paint9_radial_1_9642" cx="0" cy="0" r="1" gradientUnits="userSpaceOnUse" gradientTransform="translate(38.5254 46.0325) scale(0.234025 0.327667)">
<stop stop-color="#FFF68E"/>
<stop offset="0.5" stop-color="#FAEA82"/>
<stop offset="1" stop-color="#D6AA4A"/>
</radialGradient>
<radialGradient id="paint10_radial_1_9642" cx="0" cy="0" r="1" gradientUnits="userSpaceOnUse" gradientTransform="translate(26.3958 47.3401) scale(0.140383 0.397116)">
<stop stop-color="#FFF68E"/>
<stop offset="0.5" stop-color="#FAEA82"/>
<stop offset="1" stop-color="#D6AA4A"/>
</radialGradient>
<radialGradient id="paint11_radial_1_9642" cx="0" cy="0" r="1" gradientUnits="userSpaceOnUse" gradientTransform="translate(32.7108 47.688) scale(0.205689 0.399585)">
<stop stop-color="#FFF68E"/>
<stop offset="0.5" stop-color="#FAEA82"/>
<stop offset="1" stop-color="#D6AA4A"/>
</radialGradient>
<clipPath id="clip0_1_9642">
<rect width="54" height="54" fill="white" transform="translate(0.5)"/>
</clipPath>
</defs>
</svg>
