<svg xmlns="http://www.w3.org/2000/svg" width="14" height="14" viewBox="0 0 14 14" fill="none">
  <path d="M9.91484 10.5V12.25H12.8324C13.3848 12.25 14 11.8207 14 11.2027V8.75C14 8.42734 13.7375 8.16758 13.4176 8.16484C13.4121 8.16484 12.8352 8.15117 12.8352 7.58242C12.8352 7.20508 12.9281 7 13.4176 7C13.7375 7 14 6.74023 14 6.41758V5.25H0V6.42031C0 6.74297 0.259766 7.00273 0.582422 7.00273C1.07187 7.00273 1.16484 7.20781 1.16484 7.58516C1.16484 8.15114 0.587891 8.16758 0.582422 8.16758C0.2625 8.16758 0 8.42734 0 8.75V11.2027C0 11.8207 0.615234 12.25 1.16758 12.25H4.08516V10.5C4.08516 10.1773 4.34492 9.91758 4.66758 9.91758C4.9875 9.91758 5.25 10.1773 5.25 10.5V12.25H6.41758V9.33242C6.41758 9.00977 6.68008 8.75 7 8.75C7.31992 8.75 7.58242 9.00977 7.58242 9.33242V12.25H8.75V10.5C8.75 10.1773 9.00977 9.91758 9.33242 9.91758C9.65508 9.91758 9.91758 10.1773 9.91484 10.5ZM4.08242 7.58242V6.41484H5.25V7.58242H4.08242ZM6.41484 7.58242V6.41484H7.58242V7.58242H6.41484ZM8.75 7.58242V6.41484H9.91758V7.58242H8.75Z" fill="#15171C"/>
  <path d="M14 2.33242C14 2.00977 13.7375 1.75 13.4176 1.75H0.582422C0.2625 1.75 0 2.00977 0 2.33242V4.08242H14V2.33242Z" fill="#15171C"/>
</svg>