<svg
              xmlns="http://www.w3.org/2000/svg"
              width="18"
              height="18"
              viewBox="0 0 18 18"
              fill="none"
            >
              <path
                d="M15.1875 3.75C13.1903 3.75 11.244 3.04275 9.3375 1.6125C9.24013 1.53948 9.12171 1.5 9 1.5C8.87829 1.5 8.75987 1.53948 8.6625 1.6125C6.756 3.04275 4.80975 3.75 2.8125 3.75C2.66332 3.75 2.52024 3.80926 2.41475 3.91475C2.30926 4.02024 2.25 4.16332 2.25 4.3125V8.25C2.25 12.0007 4.4685 14.757 8.79375 16.461C8.92629 16.5132 9.07371 16.5132 9.20625 16.461C13.5315 14.757 15.75 12 15.75 8.25V4.3125C15.75 4.16332 15.6907 4.02024 15.5852 3.91475C15.4798 3.80926 15.3367 3.75 15.1875 3.75ZM12.5677 6.97725L8.06775 11.1023C7.96086 11.2001 7.82031 11.253 7.67541 11.2498C7.53051 11.2465 7.39245 11.1875 7.29 11.085L5.415 9.21C5.35973 9.1585 5.31541 9.0964 5.28466 9.0274C5.25392 8.9584 5.23739 8.88392 5.23606 8.80839C5.23472 8.73286 5.24862 8.65784 5.27691 8.5878C5.3052 8.51776 5.34731 8.45414 5.40072 8.40072C5.45414 8.34731 5.51776 8.3052 5.5878 8.27691C5.65784 8.24862 5.73286 8.23472 5.80839 8.23606C5.88392 8.23739 5.9584 8.25392 6.0274 8.28466C6.0964 8.31541 6.1585 8.35974 6.21 8.415L7.70475 9.909L11.8073 6.14775C11.9172 6.0469 12.0628 5.99388 12.2119 6.00035C12.361 6.00682 12.5014 6.07225 12.6022 6.18225C12.7031 6.29225 12.7561 6.4378 12.7496 6.58689C12.7432 6.73599 12.6777 6.8764 12.5677 6.97725Z"
                fill="#2AC869"
              />
            </svg>