<svg xmlns="http://www.w3.org/2000/svg" width="107" height="20" viewBox="0 0 107 20" fill="none">
  <g clip-path="url(#clip0_510_12007)">
    <path d="M19.9988 0.000732422H0V19.9995H19.9988V0.000732422Z" fill="#00B67A"/>
    <path d="M41.6638 0.000732422H21.665V19.9995H41.6638V0.000732422Z" fill="#00B67A"/>
    <path d="M63.3298 0.000732422H43.3311V19.9995H63.3298V0.000732422Z" fill="#00B67A"/>
    <path d="M84.9946 0.000732422H64.9958V19.9995H84.9946V0.000732422Z" fill="#00B67A"/>
    <path d="M106.66 0.000732422H96.6602V19.9995H106.66V0.000732422Z" fill="#DCDCE6"/>
    <path d="M96.6605 0.000732422H86.6611V19.9995H96.6605V0.000732422Z" fill="#00B67A"/>
    <path d="M9.99932 13.479L13.0408 12.7082L14.3115 16.6247L9.99932 13.479ZM16.9989 8.41684H11.645L9.99932 3.37549L8.35359 8.41684H2.99976L7.33282 11.5416L5.68709 16.583L10.0202 13.4582L12.6867 11.5416L16.9989 8.41684Z" fill="white"/>
    <path d="M31.6646 13.479L34.7061 12.7082L35.9768 16.6247L31.6646 13.479ZM38.6642 8.41684H33.3103L31.6646 3.37549L30.0189 8.41684H24.665L28.9981 11.5416L27.3524 16.583L31.6854 13.4582L34.3519 11.5416L38.6642 8.41684Z" fill="white"/>
    <path d="M53.3296 13.4793L56.3711 12.7085L57.6419 16.6249L53.3296 13.4793ZM60.3292 8.41708H54.9754L53.3296 3.37573L51.6839 8.41708H46.3301L50.6631 11.5419L49.0174 16.5832L53.3505 13.4584L56.017 11.5419L60.3292 8.41708Z" fill="white"/>
    <path d="M74.9957 13.4793L78.0371 12.7085L79.3079 16.6249L74.9957 13.4793ZM81.9952 8.41708H76.6414L74.9957 3.37573L73.3499 8.41708H67.9961L72.3292 11.5419L70.6834 16.5832L75.0165 13.4584L77.683 11.5419L81.9952 8.41708Z" fill="white"/>
    <path d="M96.6607 13.479L99.7022 12.7082L100.973 16.6247L96.6607 13.479ZM103.66 8.41684H98.3064L96.6607 3.37549L95.015 8.41684H89.6611L93.9942 11.5416L92.3485 16.583L96.6815 13.4582L99.348 11.5416L103.66 8.41684Z" fill="white"/>
  </g>
  <defs>
    <clipPath id="clip0_510_12007">
      <rect width="106.66" height="19.9988" fill="white" transform="translate(0 0.000732422)"/>
    </clipPath>
  </defs>
</svg>