<svg xmlns="http://www.w3.org/2000/svg" width="14" height="14" viewBox="0 0 14 14" fill="none">
  <path d="M13.8844 8.25243C13.8821 8.24701 13.8831 8.24124 13.8807 8.23588L11.3665 2.61305C11.1321 2.08865 10.6094 1.75 10.0354 1.75H3.96484C3.39062 1.75 2.86795 2.08865 2.63326 2.61305L0.119355 8.23588C0.116922 8.24127 0.117906 8.24704 0.115664 8.25243C0.0436133 8.40394 0 8.57136 0 8.75V11.0833C0 11.7268 0.523223 12.25 1.16668 12.25H12.8334C13.4768 12.25 14 11.7268 14 11.0833V8.75C14 8.57136 13.9564 8.40394 13.8844 8.25243ZM11.6667 10.5C11.3451 10.5 11.0834 10.2382 11.0834 9.91668C11.0834 9.59511 11.3451 9.33335 11.6667 9.33335C11.9882 9.33335 12.25 9.59509 12.25 9.91668C12.25 10.2383 11.9882 10.5 11.6667 10.5ZM1.68921 7.58332L3.69824 3.08927C3.74525 2.98446 3.84978 2.91665 3.96484 2.91665H10.0354C10.1502 2.91665 10.2548 2.98443 10.3015 3.08927L12.3107 7.58332H1.68921Z" fill="#15171C"/>
</svg>