<svg xmlns="http://www.w3.org/2000/svg" width="26" height="25" viewBox="0 0 26 25" fill="none">
  <path d="M25 8.8622C25 11.2212 23.09 13.1317 20.7345 13.1317H4.563C3.6182 13.1312 2.71224 12.7556 2.04416 12.0875C1.37609 11.4195 1.00053 10.5135 1 9.5687C1 7.5997 2.597 6.0027 4.563 6.0027C4.66 6.0027 4.758 6.0062 4.855 6.0127C5.5545 3.8037 7.6245 2.2002 10.0635 2.2002C11.4445 2.2002 12.7045 2.7117 13.6645 3.5572C14.0473 3.14561 14.5354 2.84651 15.0759 2.69226C15.6165 2.53801 16.1889 2.53447 16.7313 2.68203C17.2737 2.82958 17.7654 3.12262 18.1533 3.52944C18.5412 3.93626 18.8104 4.44139 18.932 4.9902C19.4967 4.72804 20.1119 4.59254 20.7345 4.5932C23.0895 4.5932 25 6.5032 25 8.8622Z" fill="#E7E3E6"/>
  <path d="M19.2485 10.7398H6.75151C6.25851 10.7398 5.85901 11.1393 5.85901 11.6323V13.1858C5.85901 13.6788 6.25901 14.0788 6.75151 14.0788H19.2485C19.7415 14.0788 20.141 13.6788 20.141 13.1858V11.6323C20.141 11.1393 19.741 10.7398 19.2485 10.7398Z" fill="#656766"/>
  <path d="M7.46449 13.0291C7.80719 13.0291 8.08499 12.7513 8.08499 12.4086C8.08499 12.0659 7.80719 11.7881 7.46449 11.7881C7.1218 11.7881 6.84399 12.0659 6.84399 12.4086C6.84399 12.7513 7.1218 13.0291 7.46449 13.0291Z" fill="#EC6E62"/>
  <path d="M9.1155 13.0291C9.45819 13.0291 9.736 12.7513 9.736 12.4086C9.736 12.0659 9.45819 11.7881 9.1155 11.7881C8.7728 11.7881 8.495 12.0659 8.495 12.4086C8.495 12.7513 8.7728 13.0291 9.1155 13.0291Z" fill="#85BD57"/>
  <path d="M10.7665 13.0291C11.1092 13.0291 11.387 12.7513 11.387 12.4086C11.387 12.0659 11.1092 11.7881 10.7665 11.7881C10.4238 11.7881 10.146 12.0659 10.146 12.4086C10.146 12.7513 10.4238 13.0291 10.7665 13.0291Z" fill="#53B1E2"/>
  <path d="M19.2485 15.1006H6.75151C6.25851 15.1006 5.85901 15.5006 5.85901 15.9931V17.5471C5.85901 18.0401 6.25901 18.4396 6.75151 18.4396H19.2485C19.7415 18.4396 20.141 18.0401 20.141 17.5471V15.9931C20.141 15.5001 19.741 15.1006 19.2485 15.1006Z" fill="#656766"/>
  <path d="M7.46449 17.3904C7.80719 17.3904 8.08499 17.1126 8.08499 16.7699C8.08499 16.4272 7.80719 16.1494 7.46449 16.1494C7.1218 16.1494 6.84399 16.4272 6.84399 16.7699C6.84399 17.1126 7.1218 17.3904 7.46449 17.3904Z" fill="#EC6E62"/>
  <path d="M9.1155 17.3904C9.45819 17.3904 9.736 17.1126 9.736 16.7699C9.736 16.4272 9.45819 16.1494 9.1155 16.1494C8.7728 16.1494 8.495 16.4272 8.495 16.7699C8.495 17.1126 8.7728 17.3904 9.1155 17.3904Z" fill="#85BD57"/>
  <path d="M10.7665 17.3904C11.1092 17.3904 11.387 17.1126 11.387 16.7699C11.387 16.4272 11.1092 16.1494 10.7665 16.1494C10.4238 16.1494 10.146 16.4272 10.146 16.7699C10.146 17.1126 10.4238 17.3904 10.7665 17.3904Z" fill="#53B1E2"/>
  <path d="M7.20105 14.0791H18.7985V15.1011H7.20105V14.0791Z" fill="#4E4C4D"/>
  <path d="M19.2485 19.4619H6.75151C6.25851 19.4619 5.85901 19.8619 5.85901 20.3544V21.9084C5.85901 22.4014 6.25901 22.8009 6.75151 22.8009H19.2485C19.7415 22.8009 20.141 22.4009 20.141 21.9084V20.3544C20.141 19.8614 19.741 19.4619 19.2485 19.4619Z" fill="#656766"/>
  <path d="M7.46449 21.7517C7.80719 21.7517 8.08499 21.4739 8.08499 21.1312C8.08499 20.7886 7.80719 20.5107 7.46449 20.5107C7.1218 20.5107 6.84399 20.7886 6.84399 21.1312C6.84399 21.4739 7.1218 21.7517 7.46449 21.7517Z" fill="#EC6E62"/>
  <path d="M9.1155 21.7517C9.45819 21.7517 9.736 21.4739 9.736 21.1312C9.736 20.7886 9.45819 20.5107 9.1155 20.5107C8.7728 20.5107 8.495 20.7886 8.495 21.1312C8.495 21.4739 8.7728 21.7517 9.1155 21.7517Z" fill="#85BD57"/>
  <path d="M10.7665 21.7517C11.1092 21.7517 11.387 21.4739 11.387 21.1312C11.387 20.7886 11.1092 20.5107 10.7665 20.5107C10.4238 20.5107 10.146 20.7886 10.146 21.1312C10.146 21.4739 10.4238 21.7517 10.7665 21.7517Z" fill="#53B1E2"/>
  <path d="M7.20105 18.4395H18.7985V19.4615H7.20105V18.4395Z" fill="#4E4C4D"/>
</svg>