<svg xmlns="http://www.w3.org/2000/svg" width="26" height="25" viewBox="0 0 26 25" fill="none">
  <g clip-path="url(#clip0_1306_247)">
    <path d="M7.35604 10.3965H0.811035V14.6045H7.35604V10.3965Z" fill="#D2D2D2"/>
    <path d="M0.778039 12.0193H7.38904C8.0371 12.0193 8.56246 11.4939 8.56246 10.8459V9.94686C8.56246 9.2988 8.0371 8.77344 7.38904 8.77344H0.778039C0.129974 8.77344 -0.395386 9.2988 -0.395386 9.94686V10.8459C-0.395386 11.4939 0.129974 12.0193 0.778039 12.0193ZM0.778039 16.2274H7.38904C8.0371 16.2274 8.56246 15.7021 8.56246 15.054V14.155C8.56246 13.5069 8.0371 12.9816 7.38904 12.9816H0.778039C0.129974 12.9816 -0.395386 13.5069 -0.395386 14.155V15.054C-0.395386 15.7021 0.129974 16.2274 0.778039 16.2274Z" fill="#E7E3E6"/>
    <path d="M6.83348 15.2285C7.17839 15.2285 7.45798 14.9489 7.45798 14.604C7.45798 14.2591 7.17839 13.9795 6.83348 13.9795C6.48858 13.9795 6.20898 14.2591 6.20898 14.604C6.20898 14.9489 6.48858 15.2285 6.83348 15.2285Z" fill="#EC6E62"/>
    <path d="M5.05846 15.2285C5.40336 15.2285 5.68296 14.9489 5.68296 14.604C5.68296 14.2591 5.40336 13.9795 5.05846 13.9795C4.71356 13.9795 4.43396 14.2591 4.43396 14.604C4.43396 14.9489 4.71356 15.2285 5.05846 15.2285Z" fill="#85BD57"/>
    <path d="M6.83348 11.0205C7.17839 11.0205 7.45798 10.7409 7.45798 10.396C7.45798 10.0511 7.17839 9.77148 6.83348 9.77148C6.48858 9.77148 6.20898 10.0511 6.20898 10.396C6.20898 10.7409 6.48858 11.0205 6.83348 11.0205Z" fill="#EC6E62"/>
    <path d="M5.05846 11.0205C5.40336 11.0205 5.68296 10.7409 5.68296 10.396C5.68296 10.0511 5.40336 9.77148 5.05846 9.77148C4.71356 9.77148 4.43396 10.0511 4.43396 10.396C4.43396 10.7409 4.71356 11.0205 5.05846 11.0205Z" fill="#85BD57"/>
    <path d="M25.0075 14.3711H16.0265V20.3151H25.0075V14.3711Z" fill="#4E4C4D"/>
    <path d="M15.9883 14.3683H25.0452C25.7909 14.3683 26.3953 13.7638 26.3953 13.0182V11.9839C26.3953 11.2382 25.7909 10.6338 25.0452 10.6338H15.9883C15.2426 10.6338 14.6382 11.2382 14.6382 11.9839V13.0182C14.6382 13.7638 15.2426 14.3683 15.9883 14.3683ZM15.9883 19.21H25.0452C25.7909 19.21 26.3953 18.6055 26.3953 17.8599V16.8255C26.3953 16.0799 25.7909 15.4754 25.0452 15.4754H15.9883C15.2426 15.4754 14.6382 16.0799 14.6382 16.8255V17.8599C14.6382 18.6055 15.2426 19.21 15.9883 19.21ZM15.9883 24.0492H25.0452C25.7909 24.0492 26.3953 23.4448 26.3953 22.6991V21.6648C26.3953 20.9191 25.7909 20.3147 25.0452 20.3147H15.9883C15.2426 20.3147 14.6382 20.9191 14.6382 21.6648V22.6991C14.6382 23.4448 15.2426 24.0492 15.9883 24.0492Z" fill="#656766"/>
    <path d="M24.406 22.9009C24.8028 22.9009 25.1245 22.5792 25.1245 22.1824C25.1245 21.7856 24.8028 21.4639 24.406 21.4639C24.0092 21.4639 23.6875 21.7856 23.6875 22.1824C23.6875 22.5792 24.0092 22.9009 24.406 22.9009Z" fill="#EC6E62"/>
    <path d="M22.3635 22.9009C22.7603 22.9009 23.082 22.5792 23.082 22.1824C23.082 21.7856 22.7603 21.4639 22.3635 21.4639C21.9667 21.4639 21.645 21.7856 21.645 22.1824C21.645 22.5792 21.9667 22.9009 22.3635 22.9009Z" fill="#85BD57"/>
    <path d="M24.406 18.061C24.8028 18.061 25.1245 17.7393 25.1245 17.3425C25.1245 16.9457 24.8028 16.624 24.406 16.624C24.0092 16.624 23.6875 16.9457 23.6875 17.3425C23.6875 17.7393 24.0092 18.061 24.406 18.061Z" fill="#EC6E62"/>
    <path d="M22.3635 18.061C22.7603 18.061 23.082 17.7393 23.082 17.3425C23.082 16.9457 22.7603 16.624 22.3635 16.624C21.9667 16.624 21.645 16.9457 21.645 17.3425C21.645 17.7393 21.9667 18.061 22.3635 18.061Z" fill="#85BD57"/>
    <path d="M24.406 13.2192C24.8028 13.2192 25.1245 12.8975 25.1245 12.5007C25.1245 12.1039 24.8028 11.7822 24.406 11.7822C24.0092 11.7822 23.6875 12.1039 23.6875 12.5007C23.6875 12.8975 24.0092 13.2192 24.406 13.2192Z" fill="#EC6E62"/>
    <path d="M22.3635 13.2192C22.7603 13.2192 23.082 12.8975 23.082 12.5007C23.082 12.1039 22.7603 11.7822 22.3635 11.7822C21.9667 11.7822 21.645 12.1039 21.645 12.5007C21.645 12.8975 21.9667 13.2192 22.3635 13.2192Z" fill="#85BD57"/>
    <path d="M25.0075 4.6875H16.0265V10.6315H25.0075V4.6875Z" fill="#4E4C4D"/>
    <path d="M15.9883 4.6847H25.0452C25.7909 4.6847 26.3953 4.08025 26.3953 3.33462V2.30028C26.3953 1.55465 25.7909 0.950195 25.0452 0.950195H15.9883C15.2426 0.950195 14.6382 1.55465 14.6382 2.30028V3.33462C14.6382 4.08025 15.2426 4.6847 15.9883 4.6847ZM15.9883 9.52637H25.0452C25.7909 9.52637 26.3953 8.92192 26.3953 8.17629V7.14194C26.3953 6.39631 25.7909 5.79186 25.0452 5.79186H15.9883C15.2426 5.79186 14.6382 6.39631 14.6382 7.14194V8.17629C14.6382 8.92192 15.2426 9.52637 15.9883 9.52637Z" fill="#656766"/>
    <path d="M24.406 8.37841C24.8028 8.37841 25.1245 8.05672 25.1245 7.65991C25.1245 7.26309 24.8028 6.94141 24.406 6.94141C24.0092 6.94141 23.6875 7.26309 23.6875 7.65991C23.6875 8.05672 24.0092 8.37841 24.406 8.37841Z" fill="#EC6E62"/>
    <path d="M22.3635 8.37841C22.7603 8.37841 23.082 8.05672 23.082 7.65991C23.082 7.26309 22.7603 6.94141 22.3635 6.94141C21.9667 6.94141 21.645 7.26309 21.645 7.65991C21.645 8.05672 21.9667 8.37841 22.3635 8.37841Z" fill="#85BD57"/>
    <path d="M24.406 3.53661C24.8028 3.53661 25.1245 3.21493 25.1245 2.81811C25.1245 2.42129 24.8028 2.09961 24.406 2.09961C24.0092 2.09961 23.6875 2.42129 23.6875 2.81811C23.6875 3.21493 24.0092 3.53661 24.406 3.53661Z" fill="#EC6E62"/>
    <path d="M22.3635 3.53661C22.7603 3.53661 23.082 3.21493 23.082 2.81811C23.082 2.42129 22.7603 2.09961 22.3635 2.09961C21.9667 2.09961 21.645 2.42129 21.645 2.81811C21.645 3.21493 21.9667 3.53661 22.3635 3.53661Z" fill="#85BD57"/>
    <path d="M12.6725 12.6447L10.9047 14.4125C10.7263 14.5909 10.437 14.5909 10.2586 14.4125C10.0803 14.2342 10.0802 13.9452 10.2584 13.7667L11.7012 12.3216L10.2582 10.8786C10.0801 10.7005 10.0798 10.4118 10.2575 10.2333L10.2586 10.2322C10.4369 10.0531 10.7267 10.0528 10.9054 10.2315L12.6725 11.9986C12.8509 12.177 12.8509 12.4663 12.6725 12.6447Z" fill="#53B1E2"/>
  </g>
  <defs>
    <clipPath id="clip0_1306_247">
      <rect width="25" height="25" fill="white" transform="translate(0.5)"/>
    </clipPath>
  </defs>
</svg>