<svg xmlns="http://www.w3.org/2000/svg" width="14" height="14" viewBox="0 0 14 14" fill="none">
  <path d="M6.99772 10.8099C7.1406 10.8099 7.2785 10.8624 7.38527 10.9573C7.49204 11.0523 7.56026 11.1831 7.57697 11.325L7.58106 11.3932V12.2426C7.58074 12.3912 7.52371 12.5341 7.4216 12.6421C7.31949 12.7501 7.18 12.8151 7.03162 12.8237C6.88324 12.8323 6.73716 12.784 6.62321 12.6886C6.50925 12.5932 6.43603 12.4578 6.41847 12.3102L6.41439 12.2426V11.3932C6.41439 11.2385 6.47585 11.0902 6.58524 10.9808C6.69464 10.8714 6.84301 10.8099 6.99772 10.8099ZM10.5193 9.68291L11.1201 10.2837C11.2263 10.3938 11.285 10.5412 11.2836 10.6942C11.2821 10.8471 11.2207 10.9934 11.1125 11.1015C11.0042 11.2096 10.8579 11.2708 10.7049 11.272C10.552 11.2732 10.4047 11.2143 10.2947 11.108L9.69389 10.5077C9.58451 10.3983 9.52309 10.2499 9.52315 10.0951C9.5232 9.94038 9.58472 9.792 9.69418 9.68262C9.80364 9.57324 9.95206 9.51182 10.1068 9.51188C10.2615 9.51193 10.4099 9.57345 10.5193 9.68291ZM4.30097 9.68291C4.41033 9.7923 4.47177 9.94065 4.47177 10.0953C4.47177 10.25 4.41033 10.3984 4.30097 10.5077L3.70072 11.1086C3.59127 11.218 3.44284 11.2794 3.2881 11.2793C3.13336 11.2793 2.98498 11.2177 2.8756 11.1083C2.76622 10.9988 2.7048 10.8504 2.70485 10.6957C2.70491 10.5409 2.76643 10.3925 2.87589 10.2832L3.47672 9.68233C3.58609 9.57315 3.73431 9.51183 3.88885 9.51183C4.04338 9.51183 4.19161 9.57373 4.30097 9.68291ZM7.00589 3.77491C7.86066 3.77491 8.68042 4.11447 9.28484 4.71888C9.88925 5.3233 10.2288 6.14306 10.2288 6.99783C10.2288 7.8526 9.88925 8.67236 9.28484 9.27677C8.68042 9.88119 7.86066 10.2207 7.00589 10.2207C6.15112 10.2207 5.33136 9.88119 4.72694 9.27677C4.12253 8.67236 3.78297 7.8526 3.78297 6.99783C3.78297 6.14306 4.12253 5.3233 4.72694 4.71888C5.33136 4.11447 6.15112 3.77491 7.00589 3.77491ZM12.2372 6.42674C12.3859 6.42691 12.5289 6.48384 12.637 6.58591C12.7451 6.68797 12.8102 6.82747 12.8189 6.97589C12.8276 7.12432 12.7793 7.27047 12.6839 7.38448C12.5885 7.4985 12.4531 7.57177 12.3055 7.58933L12.2372 7.59341H11.3879C11.2393 7.5931 11.0964 7.53606 10.9884 7.43395C10.8804 7.33184 10.8154 7.19235 10.8068 7.04397C10.7981 6.89559 10.8465 6.74951 10.9419 6.63556C11.0373 6.52161 11.1726 6.44838 11.3202 6.43083L11.3879 6.42674H12.2372ZM2.61281 6.41041C2.76144 6.41072 2.90434 6.46776 3.01234 6.56987C3.12035 6.67198 3.1853 6.81147 3.19393 6.95985C3.20257 7.10823 3.15424 7.25431 3.05881 7.36826C2.96339 7.48221 2.82806 7.55544 2.68047 7.57299L2.61281 7.57708H1.76347C1.61479 7.57691 1.47179 7.51998 1.36368 7.41792C1.25556 7.31585 1.1905 7.17635 1.18179 7.02793C1.17308 6.87951 1.22137 6.73336 1.31679 6.61934C1.41222 6.50533 1.54758 6.43205 1.69522 6.41449L1.76347 6.41041H2.61281ZM3.64531 2.84274L3.70072 2.89116L4.30156 3.49199C4.40618 3.59697 4.46692 3.73783 4.47144 3.88597C4.47596 4.03411 4.42393 4.17841 4.32591 4.28957C4.22789 4.40074 4.09123 4.47042 3.9437 4.48448C3.79616 4.49853 3.6488 4.4559 3.53156 4.36524L3.47556 4.31624L2.87589 3.71599C2.77127 3.61102 2.71053 3.47016 2.70601 3.32202C2.70148 3.17388 2.75352 3.02958 2.85153 2.91842C2.94955 2.80725 3.08621 2.73757 3.23375 2.72351C3.38129 2.70946 3.52806 2.75209 3.64531 2.84274ZM11.1196 2.89116C11.22 2.99161 11.2803 3.12525 11.2892 3.26701C11.2982 3.40878 11.255 3.54893 11.168 3.66116L11.1196 3.71599L10.5187 4.31683C10.4137 4.42145 10.2729 4.48219 10.1247 4.48671C9.97661 4.49123 9.83231 4.4392 9.72114 4.34118C9.60998 4.24316 9.54029 4.10651 9.52624 3.95897C9.51219 3.81143 9.55482 3.66407 9.64547 3.54683L9.69447 3.49141L10.2947 2.89058C10.4041 2.78122 10.5525 2.71979 10.7071 2.71979C10.8618 2.71979 11.0102 2.7818 11.1196 2.89116ZM7.00006 1.17383C7.14293 1.17385 7.28084 1.2263 7.38761 1.32125C7.49438 1.41619 7.56259 1.54701 7.57931 1.68891L7.58339 1.75716V2.60591C7.58322 2.75459 7.52629 2.8976 7.42423 3.00571C7.32216 3.11382 7.18267 3.17888 7.03424 3.1876C6.88582 3.19631 6.73967 3.14802 6.62565 3.05259C6.51164 2.95716 6.43837 2.8218 6.42081 2.67416L6.41672 2.60591V1.75716C6.41672 1.60245 6.47818 1.45408 6.58758 1.34468C6.69697 1.23529 6.84535 1.17383 7.00006 1.17383Z" fill="#212121"/>
</svg>