<svg xmlns="http://www.w3.org/2000/svg" width="70" height="71" viewBox="0 0 70 71" fill="none"><path d="M34.1758 64.6768C50.7443 64.6768 64.1758 51.2453 64.1758 34.6768C64.1758 18.1082 50.7443 4.67676 34.1758 4.67676C17.6072 4.67676 4.17578 18.1082 4.17578 34.6768C4.17578 51.2453 17.6072 64.6768 34.1758 64.6768Z" fill="url(#paint0_linear_510_4212)"/><path d="M35.4258 49.6768C43.0197 49.6768 49.1758 42.961 49.1758 34.6768C49.1758 26.3925 43.0197 19.6768 35.4258 19.6768C27.8319 19.6768 21.6758 26.3925 21.6758 34.6768C21.6758 42.961 27.8319 49.6768 35.4258 49.6768Z" stroke="#F8F9FC" stroke-width="8.55"/><path d="M15.1524 40.3009C18.259 40.3009 20.7775 37.7825 20.7775 34.6758C20.7775 31.5692 18.259 29.0508 15.1524 29.0508C12.0458 29.0508 9.52734 31.5692 9.52734 34.6758C9.52734 37.7825 12.0458 40.3009 15.1524 40.3009Z" fill="#F47421"/><path d="M46.8848 34.6758H53.5514H46.8848Z" fill="black"/><path d="M46.8848 34.6758H53.5514" stroke="#F47421" stroke-width="3.2378"/><path d="M15.1515 38.6808C17.3633 38.6808 19.1564 36.8877 19.1564 34.6759C19.1564 32.464 17.3633 30.6709 15.1515 30.6709C12.9396 30.6709 11.1465 32.464 11.1465 34.6759C11.1465 36.8877 12.9396 38.6808 15.1515 38.6808Z" fill="#F8F9FC"/><path d="M40.8876 14.1947C39.3323 16.8832 40.2509 20.3235 42.9393 21.8787C45.6278 23.434 49.068 22.5154 50.6233 19.8269C52.1786 17.1384 51.26 13.6982 48.5716 12.1429C45.8832 10.5876 42.4429 11.5063 40.8876 14.1947Z" fill="#F47421"/><path d="M29.8887 44.4922L26.5553 50.2657L29.8887 44.4922Z" fill="black"/><path d="M29.8887 44.4922L26.5553 50.2657" stroke="#F47421" stroke-width="3.2378"/><path d="M42.2879 15.0047C41.1805 16.9189 41.8345 19.3683 43.7487 20.4756C45.6628 21.5829 48.1122 20.9289 49.2196 19.0147C50.3269 17.1006 49.6729 14.6512 47.7588 13.5438C45.8447 12.4365 43.3953 13.0905 42.2879 15.0047Z" fill="#F8F9FC"/><path d="M50.6227 49.5263C49.0673 46.8378 45.6271 45.9192 42.9387 47.4745C40.2502 49.0297 39.3317 52.47 40.887 55.1585C42.4423 57.8469 45.8825 58.7656 48.571 57.2103C51.2594 55.655 52.178 52.2148 50.6227 49.5263Z" fill="#F47421"/><path d="M29.8887 24.8604L26.5553 19.0868L29.8887 24.8604Z" fill="black"/><path d="M29.8887 24.8604L26.5553 19.0868" stroke="#F47421" stroke-width="3.2378"/><path d="M49.2215 50.3376C48.1142 48.4234 45.6648 47.7694 43.7506 48.8767C41.8365 49.984 41.1825 52.4334 42.2899 54.3476C43.3972 56.2617 45.8466 56.9158 47.7608 55.8085C49.6749 54.7011 50.3289 52.2517 49.2215 50.3376Z" fill="#F8F9FC"/><defs><linearGradient id="paint0_linear_510_4212" x1="34.1758" y1="4.67676" x2="34.1758" y2="64.6768" gradientUnits="userSpaceOnUse"><stop stop-color="#F46D21"/><stop offset="1" stop-color="#F48621"/></linearGradient></defs></svg>