<svg xmlns="http://www.w3.org/2000/svg" width="32" height="32" viewBox="0 0 32 32" fill="none">
  <path d="M13.4 20.5599L21.7414 9.25859C21.8676 9.0865 22.0495 8.96335 22.2561 8.90998C22.4627 8.85661 22.6815 8.87632 22.8752 8.96575C23.069 9.05519 23.2259 9.20886 23.3194 9.40073C23.4128 9.5926 23.4371 9.81088 23.388 10.0186L23.348 10.1493L18.188 23.2159C18.0471 23.5642 17.8366 23.88 17.5694 24.1441C17.3021 24.4082 16.9838 24.6149 16.6338 24.7516C16.2839 24.8883 15.9097 24.9521 15.5343 24.9392C15.1588 24.9262 14.7899 24.8367 14.4503 24.6762C14.1106 24.5157 13.8072 24.2875 13.5588 24.0056C13.3104 23.7238 13.1222 23.3942 13.0057 23.037C12.8891 22.6798 12.8467 22.3026 12.8811 21.9285C12.9154 21.5544 13.0258 21.1912 13.2054 20.8613L13.2974 20.7079L13.3987 20.5613L13.4 20.5599ZM16.1334 14.4946L14.4987 16.7079C13.6389 16.9877 12.8854 17.5241 12.3395 18.2449C11.7937 18.9658 11.4816 19.8365 11.4454 20.7399C11.4342 21.0051 11.3182 21.2551 11.1228 21.4347C10.9274 21.6144 10.6686 21.7091 10.4034 21.6979C10.1382 21.6868 9.88823 21.5707 9.70857 21.3753C9.52891 21.1799 9.43424 20.9211 9.44538 20.6559C9.48626 19.6673 9.75493 18.7014 10.2304 17.8337C10.7059 16.9659 11.3754 16.2197 12.1867 15.6533C13.3867 14.8119 14.776 14.4386 16.1347 14.4933L16.1334 14.4946ZM21.6894 18.1639C22.0627 18.9453 22.2707 19.7906 22.3067 20.6519C22.316 20.8705 22.2534 21.0862 22.1284 21.2658C22.0034 21.4454 21.8229 21.579 21.6147 21.6462C21.4065 21.7134 21.1819 21.7105 20.9755 21.6378C20.7691 21.5651 20.5923 21.4268 20.472 21.2439L21.6894 18.1639ZM18.712 11.0039L17.42 12.7519C16.33 12.5447 15.2095 12.5583 14.1249 12.7919C13.0402 13.0255 12.0134 13.4743 11.1054 14.1119C9.5419 15.2023 8.40265 16.7988 7.88005 18.6319C7.80313 18.8821 7.63118 19.0922 7.4011 19.2171C7.17102 19.3419 6.90116 19.3715 6.64946 19.2996C6.39776 19.2277 6.1843 19.06 6.0549 18.8324C5.92551 18.6049 5.89049 18.3357 5.95738 18.0826C6.60563 15.8083 8.01838 13.8271 9.95738 12.4733C11.2147 11.591 12.6535 11.0011 14.1683 10.7469C15.6831 10.4927 17.2356 10.5805 18.712 11.0039ZM23.392 13.8546C23.7254 14.2106 24.04 14.5959 24.328 15.0079C24.9804 15.9373 25.4746 16.968 25.7907 18.0586C25.8545 18.3101 25.8181 18.5765 25.6891 18.8016C25.5602 19.0267 25.3488 19.1929 25.0996 19.265C24.8504 19.3372 24.5829 19.3097 24.3536 19.1883C24.1243 19.067 23.9512 18.8612 23.8707 18.6146C23.6157 17.7352 23.2169 16.9039 22.6907 16.1546L22.5547 15.9706L23.3907 13.8546H23.392ZM21.3067 7.80259L21.1894 7.87459C21.0254 7.98392 20.8747 8.11459 20.74 8.26792L20.612 8.42792L19.892 9.40392C18.0666 8.76631 16.1155 8.57233 14.2002 8.83803C12.2849 9.10373 10.4604 9.82147 8.87738 10.9319C6.90066 12.3107 5.37915 14.2467 4.50671 16.4933C4.46088 16.618 4.39065 16.7323 4.30014 16.8295C4.20963 16.9268 4.10064 17.005 3.97955 17.0597C3.85846 17.1143 3.7277 17.1443 3.59489 17.1479C3.46208 17.1514 3.3299 17.1285 3.20606 17.0804C3.08221 17.0323 2.9692 16.96 2.87361 16.8677C2.77802 16.7755 2.70178 16.6651 2.64933 16.543C2.59689 16.4209 2.56929 16.2896 2.56815 16.1568C2.56702 16.0239 2.59236 15.8922 2.64271 15.7693C3.65879 13.1533 5.43044 10.8989 7.73205 9.29325C9.68668 7.923 11.9554 7.06801 14.3283 6.80745C16.7011 6.54688 19.1013 6.88916 21.3067 7.80259ZM24.812 9.88525C25.8414 10.7196 26.7489 11.6939 27.508 12.7799C28.1614 13.7159 28.6974 14.7146 29.1067 15.7599C29.1546 15.8822 29.1779 16.0128 29.1754 16.1441C29.1728 16.2754 29.1444 16.4049 29.0918 16.5253C29.0392 16.6456 28.9634 16.7544 28.8687 16.8455C28.774 16.9365 28.6623 17.008 28.54 17.0559C28.4177 17.1038 28.2872 17.1271 28.1559 17.1246C28.0246 17.122 27.895 17.0936 27.7747 17.041C27.6543 16.9884 27.5455 16.9126 27.4545 16.8179C27.3634 16.7232 27.2919 16.6116 27.244 16.4893C26.5672 14.7604 25.5063 13.2079 24.1414 11.9493L24.6494 10.6639C24.7507 10.4106 24.8027 10.1466 24.812 9.88525Z" fill="#026DEB"/>
</svg>