<svg xmlns="http://www.w3.org/2000/svg" width="20" height="21" viewBox="0 0 20 21" fill="none">
  <path d="M7.89221 14.7837C7.89221 13.6781 8.208 12.6496 8.75284 11.7831H3.89474C3.39222 11.7831 2.91029 11.9863 2.55496 12.348C2.19962 12.7096 2 13.2001 2 13.7116V14.5001C2 14.9903 2.14989 15.4685 2.42947 15.8679C3.61095 17.5547 5.47537 18.4683 7.97053 18.6191L8.41011 17.151C8.06824 16.4104 7.89139 15.602 7.89221 14.7837ZM8.73516 1.5C9.85208 1.5 10.9233 1.95158 11.713 2.7554C12.5028 3.55922 12.9465 4.64944 12.9465 5.78621C12.9465 6.92299 12.5028 8.0132 11.713 8.81702C10.9233 9.62085 9.85208 10.0724 8.73516 10.0724C7.61823 10.0724 6.54706 9.62085 5.75727 8.81702C4.96749 8.0132 4.52379 6.92299 4.52379 5.78621C4.52379 4.64944 4.96749 3.55922 5.75727 2.7554C6.54706 1.95158 7.61823 1.5 8.73516 1.5ZM18 14.7837C18.0003 15.6045 17.79 16.4111 17.39 17.1238C16.99 17.8365 16.4141 18.4306 15.7193 18.8472C15.0245 19.2639 14.2349 19.4888 13.4285 19.4996C12.6222 19.5104 11.827 19.3068 11.1217 18.9088L9.28 19.4788C9.20698 19.5014 9.12929 19.5034 9.05524 19.4846C8.98118 19.4658 8.91355 19.4268 8.85958 19.3719C8.8056 19.3169 8.76732 19.2481 8.74881 19.1727C8.73031 19.0974 8.73228 19.0183 8.75453 18.944L9.31537 17.0696C8.97277 16.4401 8.77628 15.7392 8.74095 15.0205C8.70561 14.3019 8.83238 13.5845 9.11153 12.9234C9.39067 12.2623 9.8148 11.675 10.3514 11.2065C10.888 10.7379 11.5229 10.4007 12.2074 10.2204C12.8918 10.0402 13.6078 10.0218 14.3003 10.1667C14.9928 10.3116 15.6436 10.6159 16.2027 11.0563C16.7618 11.4967 17.2145 12.0615 17.526 12.7074C17.8376 13.3534 17.9997 14.0633 18 14.7829V14.7837ZM11.6825 13.4981C11.5709 13.4981 11.4638 13.5433 11.3848 13.6237C11.3058 13.704 11.2615 13.813 11.2615 13.9267C11.2615 14.0403 11.3058 14.1493 11.3848 14.2297C11.4638 14.3101 11.5709 14.3552 11.6825 14.3552H15.0526C15.1643 14.3552 15.2714 14.3101 15.3504 14.2297C15.4293 14.1493 15.4737 14.0403 15.4737 13.9267C15.4737 13.813 15.4293 13.704 15.3504 13.6237C15.2714 13.5433 15.1643 13.4981 15.0526 13.4981H11.6842H11.6825ZM11.2615 15.6408C11.2615 15.7545 11.3058 15.8635 11.3848 15.9438C11.4638 16.0242 11.5709 16.0694 11.6825 16.0694H13.3667C13.4784 16.0694 13.5855 16.0242 13.6645 15.9438C13.7434 15.8635 13.7878 15.7545 13.7878 15.6408C13.7878 15.5272 13.7434 15.4182 13.6645 15.3378C13.5855 15.2574 13.4784 15.2123 13.3667 15.2123H11.6825C11.5709 15.2123 11.4638 15.2574 11.3848 15.3378C11.3058 15.4182 11.2615 15.5272 11.2615 15.6408Z" fill="#026DEB"/>
</svg>