<svg width="55" height="54" viewBox="0 0 55 54" fill="none" xmlns="http://www.w3.org/2000/svg">
<g clip-path="url(#clip0_1_9629)">
<path d="M49.5618 10.0898C50.6684 10.0898 51.3601 10.992 51.1049 12.1063L43.9759 43.2427C43.7227 44.3571 42.618 45.2592 41.5113 45.2592H5.99352C4.88686 45.2592 4.19522 44.3571 4.45044 43.2427L11.5794 12.1063C11.8326 10.9919 12.9373 10.0898 14.044 10.0898H49.5618ZM33.2445 28.2972C33.7335 27.5296 33.6868 26.534 33.0691 25.8755L22.1699 14.2812C21.4296 13.4921 20.1495 13.4882 19.3137 14.2735C18.4778 15.0586 18.4019 16.3328 19.1422 17.12L28.2257 26.7836V26.9979L13.7692 37.4663C12.8924 38.1034 12.7307 39.3698 13.4048 40.2972C14.079 41.2247 15.3356 41.4604 16.2104 40.8233L32.2432 29.3108C32.7888 28.927 33.0965 28.5973 33.2445 28.2972ZM27.797 36.868C27.5594 36.8664 27.3238 36.9118 27.1037 37.0013C26.8836 37.0909 26.6834 37.2229 26.5144 37.39C26.3454 37.557 26.2109 37.7557 26.1188 37.9747C26.0266 38.1937 25.9785 38.4287 25.9772 38.6663C25.9772 39.6599 26.7917 40.4646 27.797 40.4646H36.4338C36.6714 40.4661 36.907 40.4208 37.127 40.3313C37.3471 40.2417 37.5474 40.1096 37.7164 39.9426C37.8854 39.7756 38.0198 39.5769 38.112 39.3579C38.2042 39.1389 38.2523 38.9039 38.2535 38.6663C38.2523 38.4287 38.2042 38.1937 38.112 37.9747C38.0198 37.7557 37.8854 37.557 37.7164 37.39C37.5474 37.2229 37.3471 37.0909 37.127 37.0013C36.907 36.9118 36.6714 36.8664 36.4338 36.868H27.797Z" fill="#3377BA"/>
</g>
<defs>
<clipPath id="clip0_1_9629">
<rect width="54" height="54" fill="white" transform="translate(0.5)"/>
</clipPath>
</defs>
</svg>
