<svg xmlns="http://www.w3.org/2000/svg" width="56" height="57" viewBox="0 0 56 57" fill="none"><path d="M4 6.5C4 5.39543 4.89543 4.5 6 4.5H24.7545C25.859 4.5 26.7545 5.39543 26.7545 6.5V25.2446C26.7545 26.3492 25.859 27.2446 24.7545 27.2446H6C4.89543 27.2446 4 26.3492 4 25.2446V6.5ZM29.2455 6.5C29.2455 5.39543 30.141 4.5 31.2455 4.5H50C51.1046 4.5 52 5.39543 52 6.5V25.2446C52 26.3492 51.1046 27.2446 50 27.2446H31.2455C30.141 27.2446 29.2455 26.3492 29.2455 25.2446V6.5ZM4 31.7455C4 30.641 4.89543 29.7455 6 29.7455H24.7545C25.859 29.7455 26.7545 30.641 26.7545 31.7455V50.5C26.7545 51.6046 25.859 52.5 24.7545 52.5H6C4.89543 52.5 4 51.6046 4 50.5V31.7455Z" fill="url(#paint0_linear_510_4191)"/><path d="M48.5714 29.7455H32.6741C30.7806 29.7455 29.2455 31.2806 29.2455 33.1741V49.0714C29.2455 50.965 30.7806 52.5 32.6741 52.5H48.5714C50.465 52.5 52 50.965 52 49.0714V33.1741C52 31.2806 50.465 29.7455 48.5714 29.7455Z" fill="url(#paint1_linear_510_4191)"/><defs><linearGradient id="paint0_linear_510_4191" x1="28" y1="4.5" x2="28" y2="52.5" gradientUnits="userSpaceOnUse"><stop stop-color="#359EFF"/><stop offset="1" stop-color="#51A4F1"/></linearGradient><linearGradient id="paint1_linear_510_4191" x1="28" y1="4.5" x2="28" y2="52.5" gradientUnits="userSpaceOnUse"><stop stop-color="#359EFF"/><stop offset="1" stop-color="#51A4F1"/></linearGradient></defs></svg>